<svg width="32" height="32" viewBox="0 0 32 32" fill="none" xmlns="http://www.w3.org/2000/svg">
<path d="M16 19.3333C18.2134 19.3333 20 17.5467 20 15.3333V7.33334C20 5.12001 18.2134 3.33334 16 3.33334C13.7867 3.33334 12 5.12001 12 7.33334V15.3333C12 17.5467 13.7867 19.3333 16 19.3333Z" fill="black"/>
<path d="M22.6667 15.3333C22.6667 19.0133 19.68 22 16 22C12.32 22 9.33335 19.0133 9.33335 15.3333H6.66669C6.66669 20.04 10.1467 23.9067 14.6667 24.56V28.6667H17.3334V24.56C21.8534 23.9067 25.3334 20.04 25.3334 15.3333H22.6667Z" fill="black"/>
</svg>
