<svg width="32" height="32" viewBox="0 0 32 32" fill="none" xmlns="http://www.w3.org/2000/svg">
<path d="M12.0534 18C15.0001 18 17.3867 15.6133 17.3867 12.6667C17.3867 9.72 15.0001 7.33334 12.0534 7.33334C9.10672 7.33334 6.72005 9.72 6.72005 12.6667C6.72005 15.6133 9.10672 18 12.0534 18ZM12.0534 10C13.5201 10 14.7201 11.2 14.7201 12.6667C14.7201 14.1333 13.5201 15.3333 12.0534 15.3333C10.5867 15.3333 9.38672 14.1333 9.38672 12.6667C9.38672 11.2 10.5867 10 12.0534 10ZM20.5734 21.4133C18.3334 20.2667 15.4267 19.3333 12.0534 19.3333C8.68005 19.3333 5.77339 20.2667 3.53339 21.4133C2.20005 22.0933 1.38672 23.4667 1.38672 24.96V28.6667H22.7201V24.96C22.7201 23.4667 21.9067 22.0933 20.5734 21.4133ZM20.0534 26H4.05339V24.96C4.05339 24.4533 4.32005 24 4.74672 23.7867C6.33339 22.9733 8.89339 22 12.0534 22C15.2134 22 17.7734 22.9733 19.3601 23.7867C19.7867 24 20.0534 24.4533 20.0534 24.96V26ZM23.9601 22L26.1334 19.8267C22.4401 15.8 22.4401 9.74667 26.1334 5.50667L23.9601 3.33334C18.7601 8.52 18.7467 16.6 23.9601 22ZM30.6134 15.2667C29.4934 13.6933 29.4934 11.6533 30.6134 10.08L28.3734 7.82667C25.6801 10.52 25.6801 14.5867 28.3734 17.52L30.6134 15.2667Z" fill="black"/>
</svg>
