<svg width="32" height="32" viewBox="0 0 32 32" fill="none" xmlns="http://www.w3.org/2000/svg">
<path d="M17.16 20.0933L13.7734 16.7467L13.8134 16.7067C16.1334 14.12 17.7867 11.1467 18.76 8.00001H22.6667V5.33334H13.3334V2.66667H10.6667V5.33334H1.33337V7.98667H16.2267C15.3334 10.56 13.92 13 12 15.1333C10.76 13.76 9.73337 12.2533 8.92004 10.6667H6.25337C7.22671 12.84 8.56004 14.8933 10.2267 16.7467L3.44004 23.44L5.33337 25.3333L12 18.6667L16.1467 22.8133L17.16 20.0933ZM24.6667 13.3333H22L16 29.3333H18.6667L20.16 25.3333H26.4934L28 29.3333H30.6667L24.6667 13.3333ZM21.1734 22.6667L23.3334 16.8933L25.4934 22.6667H21.1734Z" fill="black"/>
</svg>
