<svg width="32" height="32" viewBox="0 0 32 32" fill="none" xmlns="http://www.w3.org/2000/svg">
<mask id="mask0_490_6397" style="mask-type:alpha" maskUnits="userSpaceOnUse" x="0" y="0" width="32" height="32">
<rect width="32" height="32" fill="#D9D9D9"/>
</mask>
<g mask="url(#mask0_490_6397)">
<path d="M13.5153 15.9841L19.2931 21.7534C19.4538 21.9141 19.5326 22.1085 19.5294 22.3367C19.5263 22.5649 19.4401 22.7636 19.2709 22.9328C19.1017 23.1021 18.9028 23.1867 18.6743 23.1867C18.4458 23.1867 18.247 23.1021 18.0778 22.9328L11.8598 16.7149C11.7498 16.6049 11.6715 16.4898 11.6248 16.3696C11.5781 16.2494 11.5547 16.1209 11.5547 15.9841C11.5547 15.8417 11.5781 15.7118 11.6248 15.5944C11.6715 15.477 11.7498 15.3634 11.8598 15.2534L18.0914 9.01321C18.2521 8.85253 18.4503 8.77005 18.6859 8.76578C18.9215 8.76152 19.1239 8.84399 19.2931 9.01321C19.4567 9.18244 19.5384 9.38272 19.5384 9.61405C19.5384 9.84538 19.4567 10.0428 19.2931 10.2063L13.5153 15.9841Z" fill="#393E46"/>
</g>
</svg>
