<svg width="50" height="50" viewBox="0 0 50 50" fill="none" xmlns="http://www.w3.org/2000/svg">
<circle cx="25" cy="25" r="25" fill="#F9F9F9"/>
<mask id="mask0_287_24063" style="mask-type:alpha" maskUnits="userSpaceOnUse" x="9" y="9" width="32" height="32">
<rect x="9" y="9" width="32" height="32" fill="#D9D9D9"/>
</mask>
<g mask="url(#mask0_287_24063)">
<path d="M22.5153 24.9841L28.2931 30.7534C28.4538 30.9141 28.5326 31.1085 28.5294 31.3367C28.5263 31.5649 28.4401 31.7636 28.2709 31.9328C28.1017 32.1021 27.9028 32.1867 27.6743 32.1867C27.4458 32.1867 27.247 32.1021 27.0778 31.9328L20.8598 25.7149C20.7498 25.6049 20.6715 25.4898 20.6248 25.3696C20.5781 25.2494 20.5547 25.1209 20.5547 24.9841C20.5547 24.8417 20.5781 24.7118 20.6248 24.5944C20.6715 24.477 20.7498 24.3634 20.8598 24.2534L27.0914 18.0132C27.2521 17.8525 27.4503 17.77 27.6859 17.7658C27.9215 17.7615 28.1239 17.844 28.2931 18.0132C28.4567 18.1824 28.5384 18.3827 28.5384 18.614C28.5384 18.8454 28.4567 19.0428 28.2931 19.2063L22.5153 24.9841Z" fill="#393E46"/>
</g>
</svg>
