<svg width="24" height="24" viewBox="0 0 24 24" fill="none" xmlns="http://www.w3.org/2000/svg">
<g clipPath="url(#clip0_329_5802)">
<mask id="mask0_329_5802" style="mask-type:alpha" maskUnits="userSpaceOnUse" x="0" y="0" width="24" height="24">
<path d="M24 0H0V24H24V0Z" fill="#D9D9D9"/>
</mask>
<g mask="url(#mask0_329_5802)">
<path d="M7.3077 20.5017C6.81058 20.5017 6.38502 20.3247 6.03102 19.9707C5.67701 19.6167 5.5 19.1912 5.5 18.694V6.00176H5.25C5.0375 6.00176 4.85938 5.92985 4.71563 5.78604C4.57188 5.64224 4.5 5.46404 4.5 5.25144C4.5 5.03885 4.57188 4.86077 4.71563 4.71719C4.85938 4.57359 5.0375 4.50179 5.25 4.50179H8.99997C8.99997 4.25692 9.08619 4.04827 9.25863 3.87584C9.43106 3.7034 9.63971 3.61719 9.88457 3.61719H14.1154C14.3602 3.61719 14.5689 3.7034 14.7413 3.87584C14.9138 4.04827 15 4.25692 15 4.50179H18.75C18.9625 4.50179 19.1406 4.5737 19.2843 4.71751C19.4281 4.86133 19.5 5.03953 19.5 5.25211C19.5 5.46471 19.4281 5.6428 19.2843 5.78639C19.1406 5.92997 18.9625 6.00176 18.75 6.00176H18.5V18.694C18.5 19.1912 18.3229 19.6167 17.9689 19.9707C17.6149 20.3247 17.1894 20.5017 16.6922 20.5017H7.3077ZM17 6.00176H6.99997V18.694C6.99997 18.7838 7.02883 18.8575 7.08652 18.9152C7.14422 18.9729 7.21795 19.0018 7.3077 19.0018H16.6922C16.782 19.0018 16.8557 18.9729 16.9134 18.9152C16.9711 18.8575 17 18.7838 17 18.694V6.00176ZM10.1542 17.0018C10.3668 17.0018 10.5448 16.9299 10.6884 16.7861C10.832 16.6424 10.9038 16.4643 10.9038 16.2518V8.75174C10.9038 8.53926 10.8319 8.36114 10.6881 8.21739C10.5443 8.07364 10.3661 8.00176 10.1535 8.00176C9.9409 8.00176 9.76281 8.07364 9.61922 8.21739C9.47564 8.36114 9.40385 8.53926 9.40385 8.75174V16.2518C9.40385 16.4643 9.47576 16.6424 9.61958 16.7861C9.76337 16.9299 9.94158 17.0018 10.1542 17.0018ZM13.8464 17.0018C14.059 17.0018 14.2371 16.9299 14.3807 16.7861C14.5243 16.6424 14.5961 16.4643 14.5961 16.2518V8.75174C14.5961 8.53926 14.5242 8.36114 14.3804 8.21739C14.2366 8.07364 14.0584 8.00176 13.8458 8.00176C13.6332 8.00176 13.4551 8.07364 13.3115 8.21739C13.1679 8.36114 13.0961 8.53926 13.0961 8.75174V16.2518C13.0961 16.4643 13.168 16.6424 13.3118 16.7861C13.4557 16.9299 13.6339 17.0018 13.8464 17.0018Z" fill="black"/>
</g>
</g>
<defs>
<clipPath id="clip0_329_5802">
<rect width="24" height="24" fill="white"/>
</clipPath>
</defs>
</svg>
