<svg xmlns="http://www.w3.org/2000/svg" width="48" height="48" viewBox="0 0 48 48" fill="none">
  <path d="M28.4444 46.7054H1.39735C0.996342 46.7054 0.668241 46.3804 0.668241 45.9794C0.662165 43.8467 0.750266 38.5211 1.7133 35.0913C1.96849 34.1768 2.28141 33.4295 2.69457 32.7399C3.04394 32.1566 4.04647 30.6923 5.84495 29.6806C7.50368 28.748 9.09254 28.6082 10.1346 28.6568C10.2774 28.6629 10.4141 28.7115 10.5295 28.7966L14.81 31.9196L19.3336 28.7875C19.446 28.7085 19.5796 28.666 19.7163 28.6599C20.7584 28.6113 22.3472 28.751 24.006 29.6837C25.8044 30.6953 26.807 32.1596 27.1563 32.7429C27.5695 33.4325 27.8794 34.1799 28.1376 35.0943C29.0976 38.5242 29.1887 43.8497 29.1827 45.9824C29.1736 46.3804 28.8485 46.7054 28.4444 46.7054ZM14.889 45.2472H27.7153C27.6971 43.0811 27.5543 38.433 26.728 35.4832C26.5032 34.6842 26.248 34.0705 25.9017 33.4842C25.6131 33.0011 24.7806 31.789 23.289 30.9505C22.0343 30.2457 20.8343 30.0938 19.9867 30.106L15.2141 33.4113C14.9589 33.5875 14.6186 33.5844 14.3695 33.4022L9.849 30.106C9.00444 30.0938 7.80444 30.2487 6.55584 30.9505C5.06419 31.792 4.23179 33.0042 3.94318 33.4842C3.59381 34.0675 3.33862 34.6842 3.11685 35.4832C2.29052 38.433 2.14773 43.0811 2.12951 45.2472H14.889Z" fill="#00ADB5"/>
  <path d="M7.0963 46.7016C6.69225 46.7016 6.36719 46.3765 6.36719 45.9725V38.3776C6.36719 37.9735 6.69225 37.6484 7.0963 37.6484C7.50035 37.6484 7.82542 37.9735 7.82542 38.3776V45.9725C7.82542 46.3765 7.50035 46.7016 7.0963 46.7016Z" fill="#00ADB5"/>
  <path d="M22.7486 46.7016C22.3446 46.7016 22.0195 46.3765 22.0195 45.9725V38.3776C22.0195 37.9735 22.3446 37.6484 22.7486 37.6484C23.1527 37.6484 23.4778 37.9735 23.4778 38.3776V45.9725C23.4778 46.3765 23.1497 46.7016 22.7486 46.7016Z" fill="#00ADB5"/>
  <path d="M14.9578 28.6403C13.0864 28.6403 11.3305 27.8383 10.015 26.3831C8.71783 24.9461 8.00391 23.0444 8.00391 21.0211V18.1107C8.00391 17.8008 8.20137 17.5244 8.49606 17.4211C8.50821 17.418 9.78416 16.9654 10.4768 16.1968C10.735 15.9112 11.1664 15.8687 11.4672 16.1117C11.5067 16.1421 12.2631 16.7011 13.5725 16.9836C15.3649 17.3725 17.2971 17.0869 19.3143 16.136C19.5999 16.0023 19.9371 16.0661 20.1558 16.294C20.1619 16.3001 20.8971 17.0717 21.5654 17.4849C21.7811 17.6185 21.9118 17.8525 21.9118 18.1046V21.015C21.9118 23.0352 21.1978 24.9401 19.9006 26.377C18.5852 27.8383 16.8292 28.6403 14.9578 28.6403ZM9.46213 18.5998V21.0211C9.46213 24.4175 11.9259 27.1821 14.9578 27.1821C17.9897 27.1821 20.4535 24.4175 20.4535 21.0211V18.4965C20.0768 18.2231 19.7214 17.9071 19.4692 17.6702C18.3421 18.1532 17.215 18.4509 16.1183 18.5633C15.1067 18.6666 14.1133 18.6089 13.1715 18.3932C12.248 18.1806 11.5492 17.8555 11.1057 17.6094C10.5437 18.0742 9.89656 18.4054 9.46213 18.5998Z" fill="#00ADB5"/>
  <path d="M8.73659 18.8366C8.45406 18.8366 8.18672 18.6726 8.06824 18.3961C7.73406 17.6275 7.68241 16.7951 7.63684 16.0629C7.60039 15.4645 7.55178 14.7202 7.72495 14.0002C7.87381 13.3713 8.24748 12.6999 8.86115 11.9495C8.95533 11.8341 9.05862 11.7186 9.15887 11.6093C10.8176 9.83206 13.5579 9.13332 14.0895 9.0118C15.1315 8.7718 16.128 8.68674 17.0515 8.75965C17.7017 8.8113 18.2546 8.8994 18.7376 9.03611C19.3908 9.21839 19.9011 9.57079 20.211 10.0538C20.369 10.2969 20.4662 10.549 20.5513 10.7678C20.6333 10.9804 20.7032 11.1627 20.8004 11.2781C20.931 11.4331 21.1072 11.5728 21.2956 11.7217C21.5052 11.8888 21.7452 12.0771 21.9579 12.3171C22.4743 12.9004 23.0606 13.8756 23.1487 14.8599C23.2308 15.7713 22.8692 16.5672 22.5442 17.1597C22.5351 17.1748 22.5138 17.2174 22.4865 17.2721C21.9305 18.3445 21.806 18.5207 21.6692 18.6452C21.3715 18.9156 20.9098 18.8974 20.6394 18.5997C20.3842 18.3202 20.3872 17.8979 20.6333 17.6214C20.688 17.5394 20.8308 17.2933 21.1892 16.6007C21.2257 16.5278 21.253 16.4761 21.2622 16.4579C21.487 16.0478 21.7391 15.51 21.6936 14.9905C21.6389 14.4012 21.2257 13.6903 20.8611 13.2802C20.7336 13.1343 20.5634 13.0037 20.3872 12.8609C20.1624 12.6817 19.9072 12.4812 19.6824 12.2138C19.4272 11.91 19.2996 11.5789 19.1842 11.2872C19.1174 11.1171 19.0566 10.9561 18.9806 10.8407C18.8348 10.6128 18.5492 10.4943 18.3366 10.4366C17.9477 10.3272 17.486 10.2543 16.933 10.2118C16.1553 10.151 15.3047 10.227 14.4085 10.4336C13.1386 10.7252 11.2794 11.4695 10.2161 12.6057C10.1341 12.6908 10.0551 12.7819 9.97912 12.8761C9.51431 13.4442 9.22874 13.9364 9.13457 14.3404C9.01305 14.8478 9.0495 15.4462 9.08292 15.9718C9.12241 16.6159 9.16494 17.2812 9.39583 17.8159C9.55684 18.1865 9.38672 18.6148 9.01608 18.7759C8.93102 18.8153 8.83077 18.8366 8.73659 18.8366ZM20.691 17.5667C20.691 17.5698 20.691 17.5698 20.691 17.5667V17.5667Z" fill="#00ADB5"/>
  <path d="M11.2139 30.9263C11.1106 30.9263 11.0043 30.905 10.9041 30.8564C10.5395 30.6863 10.3815 30.2518 10.5547 29.8873C10.7339 29.5075 11.0347 28.748 11.056 27.9217C11.0651 27.5906 11.0225 27.4387 10.9527 27.1835C10.9375 27.1258 10.9223 27.068 10.9041 27.0073C10.8038 26.6184 11.0347 26.2204 11.4266 26.1171C11.8155 26.0169 12.2134 26.2478 12.3167 26.6397C12.3319 26.6944 12.3441 26.746 12.3593 26.7946C12.4443 27.0984 12.5294 27.4083 12.5142 27.9582C12.4869 29.0488 12.101 30.024 11.8762 30.504C11.7486 30.7713 11.4874 30.9263 11.2139 30.9263Z" fill="#00ADB5"/>
  <path d="M18.5581 30.9302C18.2938 30.9302 18.0386 30.7844 17.908 30.5353C17.4462 29.6391 17.191 28.7034 17.1698 27.8285C17.1576 27.391 17.2092 27.1115 17.27 26.8776C17.3429 26.5525 17.6346 26.3125 17.9809 26.3125C18.3849 26.3125 18.71 26.6376 18.71 27.0416C18.71 27.1024 18.7039 27.1631 18.6887 27.2209C18.6462 27.391 18.6219 27.5368 18.628 27.795C18.6492 28.6244 18.953 29.3839 19.2052 29.873C19.3905 30.2315 19.2477 30.672 18.8893 30.8543C18.7829 30.9029 18.6705 30.9302 18.5581 30.9302Z" fill="#00ADB5"/>
  <path d="M41.4086 10.5141C41.2446 10.5141 41.0775 10.4594 40.9408 10.344L35.9008 6.13942L30.8638 10.344C30.554 10.6022 30.0952 10.5597 29.837 10.2498C29.5788 9.93992 29.6213 9.48119 29.9312 9.22296L35.436 4.62955C35.7064 4.40473 36.0983 4.40473 36.3717 4.62955L41.8765 9.22296C42.1864 9.48119 42.2259 9.93992 41.9707 10.2498C41.8248 10.423 41.6152 10.5141 41.4086 10.5141Z" fill="#00ADB5"/>
  <path d="M40.0857 15.6969H37.2482C36.8442 15.6969 36.5191 15.3719 36.5191 14.9678V11.7688H35.2918V14.9708C35.2918 15.3749 34.9667 15.7 34.5627 15.7H31.7252C31.3212 15.7 30.9961 15.3749 30.9961 14.9708V8.68224C30.9961 8.27819 31.3212 7.95312 31.7252 7.95312C32.1293 7.95312 32.4543 8.27819 32.4543 8.68224V14.2417H33.8336V11.0397C33.8336 10.6357 34.1586 10.3106 34.5627 10.3106H37.2482C37.6523 10.3106 37.9774 10.6357 37.9774 11.0397V14.2417H39.3566V8.68224C39.3566 8.27819 39.6817 7.95312 40.0857 7.95312C40.4898 7.95312 40.8148 8.27819 40.8148 8.68224V14.9708C40.8148 15.3719 40.4867 15.6969 40.0857 15.6969Z" fill="#00ADB5"/>
  <path d="M39.389 42.089C39.3556 42.089 39.3222 42.089 39.2918 42.089C38.1039 42.092 36.5546 42.0252 35.072 41.4662C34.2062 41.1381 33.4164 40.6429 32.7905 40.0262C32.0918 39.3426 31.6118 38.5254 31.3961 37.6626C31.071 36.3502 31.3657 35.0196 31.6574 34.0049C32.5201 31.0216 34.1029 28.251 36.2386 25.9938C36.5151 25.7021 36.9769 25.6869 37.2685 25.9664C37.5601 26.2429 37.5723 26.7047 37.2958 26.9963C35.3212 29.0834 33.8538 31.6474 33.0579 34.409C32.8148 35.2474 32.5688 36.335 32.8118 37.3102C33.1034 38.495 34.1667 39.5614 35.5885 40.0991C36.8493 40.576 38.2285 40.6307 39.2918 40.6277H39.2979C40.3581 40.6307 41.7404 40.576 43.0012 40.0991C44.4199 39.5614 45.4832 38.495 45.7779 37.3102C46.0209 36.332 45.7718 35.2474 45.5318 34.409C44.7328 31.6474 43.2685 29.0834 41.2938 26.9963C41.0174 26.7047 41.0295 26.2429 41.3212 25.9664C41.6128 25.69 42.0746 25.7021 42.351 25.9938C44.4867 28.251 46.0695 31.0186 46.9323 34.0049C47.2239 35.0166 47.5186 36.3472 47.1936 37.6626C46.9809 38.5254 46.4979 39.3426 45.7991 40.0262C45.1703 40.6398 44.3834 41.1381 43.5176 41.4662C42.0715 42.01 40.5647 42.089 39.389 42.089Z" fill="#00ADB5"/>
  <path d="M41.6853 27.2279H36.8974C36.5967 27.2279 36.3263 27.0426 36.2169 26.7631L34.6554 22.7621C34.5673 22.5373 34.5977 22.2851 34.7314 22.0846C34.865 21.8841 35.0929 21.7656 35.3329 21.7656C36.0286 21.7656 36.4144 21.9965 36.6969 22.1636C36.9096 22.2912 37.019 22.355 37.3106 22.355C37.6022 22.355 37.7116 22.2912 37.9243 22.1636C38.2068 21.9965 38.5926 21.7656 39.2883 21.7656C39.984 21.7656 40.3698 21.9965 40.6524 22.1636C40.865 22.2912 40.9744 22.355 41.266 22.355C41.5577 22.355 41.6671 22.2912 41.8797 22.1636C42.1622 21.9965 42.5481 21.7656 43.2438 21.7656C43.4838 21.7656 43.7086 21.8841 43.8453 22.0846C43.982 22.2851 44.0093 22.5373 43.9212 22.7621L42.3597 26.7631C42.2534 27.0456 41.986 27.2279 41.6853 27.2279ZM37.3957 25.7697H41.1871L41.986 23.719C41.7886 23.7768 41.5547 23.8163 41.2691 23.8163C40.5734 23.8163 40.1876 23.5854 39.905 23.4183C39.6924 23.2907 39.583 23.2269 39.2914 23.2269C38.9997 23.2269 38.8903 23.2907 38.6777 23.4183C38.3952 23.5854 38.0093 23.8163 37.3136 23.8163C37.025 23.8163 36.7911 23.7768 36.5967 23.719L37.3957 25.7697Z" fill="#00ADB5"/>
  <path d="M41.4617 36.9267C41.6592 36.6199 41.7595 36.2887 41.7595 35.9394C41.7595 35.5869 41.6653 35.268 41.48 34.9915L41.4769 34.9885C41.2947 34.7181 41.0152 34.4963 40.6445 34.3262C40.4045 34.2168 39.9853 34.0953 39.3655 33.9556C38.6243 33.7885 38.4329 33.6639 38.3903 33.6305L38.3873 33.6275C38.3053 33.5545 38.2688 33.4664 38.2688 33.348C38.2688 33.2052 38.3326 33.0897 38.4663 32.9834C38.5696 32.9014 38.7914 32.8011 39.2562 32.8011C39.6116 32.8011 39.8759 32.871 40.04 33.0047C40.1493 33.0958 40.2314 33.2204 40.2769 33.3814C40.359 33.6578 40.605 33.8432 40.8876 33.8432C40.9028 33.8432 40.921 33.8432 40.9392 33.8401H40.9483C41.1428 33.8249 41.3159 33.7247 41.4283 33.5667C41.5377 33.4087 41.5711 33.2113 41.5195 33.029C41.4648 32.8406 41.3858 32.6614 41.2764 32.4973C41.0759 32.1935 40.7903 31.9626 40.4258 31.8077C40.0795 31.6619 39.6754 31.5859 39.2288 31.5859C38.8217 31.5859 38.442 31.6558 38.1048 31.7956C37.7463 31.9444 37.4698 32.1662 37.2784 32.4578C37.0901 32.7464 36.9929 33.0624 36.9929 33.3966C36.9929 33.7034 37.0719 33.989 37.2329 34.2381C37.3878 34.4842 37.6248 34.6907 37.9316 34.8548L37.9407 34.8578C38.1716 34.9794 38.5392 35.0978 39.0678 35.2254C39.56 35.3439 39.882 35.432 40.0217 35.4867C40.201 35.5566 40.3286 35.6356 40.3954 35.7206C40.4562 35.7996 40.4865 35.8938 40.4865 36.0001C40.4865 36.1095 40.4531 36.2128 40.3833 36.3069C40.3134 36.4072 40.1949 36.4862 40.0339 36.55C39.8547 36.6199 39.639 36.6563 39.3959 36.6563C39.1225 36.6563 38.8734 36.6077 38.6577 36.5166C38.4572 36.4285 38.3114 36.3191 38.2233 36.1885C38.1655 36.1034 38.12 36.0032 38.0896 35.8847C38.0136 35.6052 37.7584 35.4077 37.4668 35.4077C37.4486 35.4077 37.4273 35.4077 37.4121 35.4107C37.2238 35.4259 37.0567 35.5232 36.9473 35.6751C36.8379 35.8269 36.7984 36.0183 36.841 36.2037C36.8987 36.4437 36.9959 36.6715 37.1326 36.8811C37.3544 37.2214 37.6673 37.4766 38.0562 37.6467C38.4298 37.8077 38.8916 37.8897 39.4293 37.8897C39.8638 37.8897 40.2617 37.8077 40.6141 37.6467C40.9787 37.4735 41.2643 37.2335 41.4617 36.9267Z" fill="#00ADB5"/>
  <path d="M39.2916 38.9582C38.8876 38.9582 38.5625 38.6331 38.5625 38.2291V37.901C38.5625 37.4969 38.8876 37.1719 39.2916 37.1719C39.6957 37.1719 40.0207 37.4969 40.0207 37.901V38.2291C40.0207 38.6301 39.6957 38.9582 39.2916 38.9582Z" fill="#00ADB5"/>
  <path d="M39.2916 32.2989C38.8876 32.2989 38.5625 31.9739 38.5625 31.5698V31.2447C38.5625 30.8407 38.8876 30.5156 39.2916 30.5156C39.6957 30.5156 40.0207 30.8407 40.0207 31.2447V31.5698C40.0207 31.9708 39.6957 32.2989 39.2916 32.2989Z" fill="#00ADB5"/>
</svg>