<svg xmlns="http://www.w3.org/2000/svg" width="32" height="32" viewBox="0 0 32 32" fill="none">
<path d="M26.6667 6.66667H22.4401L20.0001 4H12.0001L9.56008 6.66667H5.33341C3.86675 6.66667 2.66675 7.86667 2.66675 9.33333V25.3333C2.66675 26.8 3.86675 28 5.33341 28H26.6667C28.1334 28 29.3334 26.8 29.3334 25.3333V9.33333C29.3334 7.86667 28.1334 6.66667 26.6667 6.66667ZM26.6667 25.3333H5.33341V9.33333H10.7334L13.1734 6.66667H18.8267L21.2667 9.33333H26.6667V25.3333ZM16.0001 10.6667C12.3201 10.6667 9.33342 13.6533 9.33342 17.3333C9.33342 21.0133 12.3201 24 16.0001 24C19.6801 24 22.6667 21.0133 22.6667 17.3333C22.6667 13.6533 19.6801 10.6667 16.0001 10.6667ZM16.0001 21.3333C13.8001 21.3333 12.0001 19.5333 12.0001 17.3333C12.0001 15.1333 13.8001 13.3333 16.0001 13.3333C18.2001 13.3333 20.0001 15.1333 20.0001 17.3333C20.0001 19.5333 18.2001 21.3333 16.0001 21.3333Z" fill="#00ABB2"/>
</svg>