<svg width="60" height="61" viewBox="0 0 60 61" fill="none" xmlns="http://www.w3.org/2000/svg">
<rect y="0.5" width="60" height="60" rx="30" fill="#00ADB5"/>
<path d="M27.0525 34.7538L37.4187 24.3876C37.5972 24.2092 37.8091 24.118 38.0545 24.1141C38.2998 24.1103 38.5156 24.2015 38.7017 24.3876C38.8879 24.5738 38.981 24.7876 38.981 25.0291C38.981 25.2707 38.8879 25.4845 38.7017 25.6707L27.8117 36.5606C27.5948 36.7775 27.3418 36.886 27.0525 36.886C26.7633 36.886 26.5102 36.7775 26.2933 36.5606L21.2833 31.5507C21.1049 31.3722 21.0168 31.1603 21.0191 30.9149C21.0214 30.6695 21.1156 30.4538 21.3018 30.2676C21.4879 30.0815 21.7018 29.9884 21.9433 29.9884C22.1848 29.9884 22.3987 30.0815 22.5848 30.2676L27.0525 34.7538Z" fill="white"/>
</svg>
