<svg width="60" height="61" viewBox="0 0 60 61" fill="none" xmlns="http://www.w3.org/2000/svg">
<rect y="0.5" width="60" height="60" rx="30" fill="#B20000"/>
<mask id="mask0_5266_121771" style="mask-type:alpha" maskUnits="userSpaceOnUse" x="18" y="18" width="24" height="25">
<rect x="18" y="18.5" width="24" height="24" fill="#D9D9D9"/>
</mask>
<g mask="url(#mask0_5266_121771)">
<path d="M39.3135 36.9827L38 35.6692V30.096H32.427L29.2348 26.904H38V24.8077C38 24.7179 37.9712 24.6442 37.9135 24.5865C37.8558 24.5288 37.7821 24.5 37.6923 24.5H26.8308L25.3308 23H37.6923C38.1974 23 38.625 23.175 38.975 23.525C39.325 23.875 39.5 24.3026 39.5 24.8077V36.1922C39.5 36.3332 39.4849 36.4717 39.4548 36.6077C39.4246 36.7436 39.3775 36.8686 39.3135 36.9827ZM27.4578 30.096H22V36.1922C22 36.2692 22.0321 36.3397 22.0963 36.4037C22.1603 36.4679 22.2308 36.5 22.3078 36.5H33.8615L27.4578 30.096ZM38.777 41.4152L35.3615 38H22.3078C21.8026 38 21.375 37.825 21.025 37.475C20.675 37.125 20.5 36.6974 20.5 36.1922V24.8077C20.5 24.3026 20.675 23.875 21.025 23.525C21.375 23.175 21.8026 23 22.3078 23H22.5L24 24.5H22.3078C22.2308 24.5 22.1603 24.5321 22.0963 24.5962C22.0321 24.6602 22 24.7307 22 24.8077V26.904H24.2655L19.2655 21.9037L20.3348 20.8347L39.8463 40.3462L38.777 41.4152Z" fill="white"/>
</g>
</svg>
