<svg width="193" height="192" viewBox="0 0 193 192" fill="none" xmlns="http://www.w3.org/2000/svg">
<g filter="url(#filter0_i_57573_205430)">
<path d="M24.5 48H168.5V32H24.5C15.7 32 8.5 39.2 8.5 48V144C8.5 152.8 15.7 160 24.5 160H56.5V144H24.5V48ZM104.5 96H72.5V110.24C67.62 114.64 64.5 120.88 64.5 128C64.5 135.12 67.62 141.36 72.5 145.76V160H104.5V145.76C109.38 141.36 112.5 135.04 112.5 128C112.5 120.96 109.38 114.64 104.5 110.24V96ZM88.5 140C81.86 140 76.5 134.64 76.5 128C76.5 121.36 81.86 116 88.5 116C95.14 116 100.5 121.36 100.5 128C100.5 134.64 95.14 140 88.5 140ZM176.5 64H128.5C124.5 64 120.5 68 120.5 72V152C120.5 156 124.5 160 128.5 160H176.5C180.5 160 184.5 156 184.5 152V72C184.5 68 180.5 64 176.5 64ZM168.5 144H136.5V80H168.5V144Z" fill="#F2F2F2"/>
</g>
<defs>
<filter id="filter0_i_57573_205430" x="8.5" y="32" width="176" height="130" filterUnits="userSpaceOnUse" color-interpolation-filters="sRGB">
<feFlood flood-opacity="0" result="BackgroundImageFix"/>
<feBlend mode="normal" in="SourceGraphic" in2="BackgroundImageFix" result="shape"/>
<feColorMatrix in="SourceAlpha" type="matrix" values="0 0 0 0 0 0 0 0 0 0 0 0 0 0 0 0 0 0 127 0" result="hardAlpha"/>
<feOffset dy="2"/>
<feGaussianBlur stdDeviation="2.5"/>
<feComposite in2="hardAlpha" operator="arithmetic" k2="-1" k3="1"/>
<feColorMatrix type="matrix" values="0 0 0 0 0 0 0 0 0 0 0 0 0 0 0 0 0 0 0.2 0"/>
<feBlend mode="normal" in2="shape" result="effect1_innerShadow_57573_205430"/>
</filter>
</defs>
</svg>
