<svg width="21" height="20" viewBox="0 0 21 20" fill="none" xmlns="http://www.w3.org/2000/svg">
<mask id="mask0_287_14550" style="mask-type:alpha" maskUnits="userSpaceOnUse" x="0" y="0" width="21" height="20">
<rect x="0.1875" width="20.236" height="20" fill="#D9D9D9"/>
</mask>
<g mask="url(#mask0_287_14550)">
<path d="M10.3056 17.5807C9.24848 17.5807 8.25504 17.3833 7.32528 16.9886C6.39553 16.5939 5.58073 16.0508 4.8809 15.3592C4.18108 14.6677 3.63144 13.8615 3.23199 12.9408C2.83254 12.02 2.63281 11.0361 2.63281 9.98923C2.63281 8.94231 2.8325 7.96144 3.23188 7.0466C3.63126 6.13176 4.1808 5.32841 4.88048 4.63656C5.58018 3.9447 6.39586 3.40132 7.3275 3.00642C8.25914 2.61151 9.25459 2.41406 10.3138 2.41406C11.3731 2.41406 12.3656 2.61146 13.2912 3.00625C14.2168 3.40104 15.0297 3.94427 15.7297 4.63594C16.4297 5.3276 16.9795 6.13073 17.3791 7.04531C17.7786 7.95988 17.9784 8.9439 17.9784 9.99738V11.0551C17.9784 11.758 17.7282 12.3547 17.2278 12.8451C16.7275 13.3355 16.1204 13.5807 15.4067 13.5807C14.9235 13.5807 14.4871 13.4466 14.0974 13.1784C13.7077 12.9103 13.3955 12.5657 13.1609 12.1448C12.8129 12.5743 12.3905 12.9209 11.8938 13.1848C11.3971 13.4487 10.8677 13.5807 10.3056 13.5807C9.2994 13.5807 8.44358 13.2316 7.73814 12.5335C7.03272 11.8354 6.68001 10.9884 6.68001 9.99267C6.68001 8.99689 7.03319 8.15151 7.73955 7.45652C8.4459 6.76155 9.30284 6.41406 10.3104 6.41406C11.3179 6.41406 12.1733 6.76266 12.8764 7.45985C13.5796 8.15706 13.9312 9.0029 13.9312 9.99738V11.0551C13.9312 11.4526 14.0771 11.7924 14.369 12.0744C14.6609 12.3564 15.0068 12.4974 15.4067 12.4974C15.8067 12.4974 16.1526 12.3564 16.4445 12.0744C16.7364 11.7924 16.8823 11.4526 16.8823 11.0551V9.99738C16.8823 8.19182 16.2429 6.6571 14.9641 5.39321C13.6853 4.12932 12.1325 3.49738 10.3056 3.49738C8.47874 3.49738 6.92591 4.12932 5.64711 5.39321C4.36831 6.6571 3.72891 8.19182 3.72891 9.99738C3.72891 11.8029 4.36831 13.3377 5.64711 14.6015C6.92591 15.8654 8.48123 16.4974 10.3131 16.4974H13.8048C13.96 16.4974 14.0902 16.5489 14.1952 16.6519C14.3003 16.7549 14.3528 16.8826 14.3528 17.0349C14.3528 17.1872 14.3003 17.3163 14.1952 17.422C14.0902 17.5278 13.96 17.5807 13.8048 17.5807H10.3056ZM10.3056 12.4974C11.0082 12.4974 11.6055 12.2543 12.0973 11.7682C12.5892 11.2821 12.8351 10.6918 12.8351 9.99738C12.8351 9.30293 12.5892 8.71265 12.0973 8.22654C11.6055 7.74043 11.0082 7.49738 10.3056 7.49738C9.60296 7.49738 9.00572 7.74043 8.51388 8.22654C8.02203 8.71265 7.7761 9.30293 7.7761 9.99738C7.7761 10.6918 8.02203 11.2821 8.51388 11.7682C9.00572 12.2543 9.60296 12.4974 10.3056 12.4974Z" fill="black"/>
</g>
</svg>
