<svg width="44" height="44" viewBox="0 0 44 44" fill="none" xmlns="http://www.w3.org/2000/svg">
<rect x="0.5" y="0.499756" width="43" height="43" rx="21.5" fill="#F3F3F3"/>
<rect x="0.5" y="0.499756" width="43" height="43" rx="21.5" stroke="#F3F3F3"/>
<path d="M26.5 15.9998H23.5C22.9477 15.9998 22.5 16.4475 22.5 16.9998V19.9998H26.5C26.6137 19.9972 26.7216 20.0502 26.7892 20.1417C26.8568 20.2332 26.8758 20.3518 26.84 20.4598L26.1 22.6598C26.0318 22.8617 25.8431 22.9982 25.63 22.9998H22.5V30.4998C22.5 30.7759 22.2761 30.9998 22 30.9998H19.5C19.2239 30.9998 19 30.7759 19 30.4998V22.9998H17.5C17.2239 22.9998 17 22.7759 17 22.4998V20.4998C17 20.2237 17.2239 19.9998 17.5 19.9998H19V16.9998C19 14.7906 20.7909 12.9998 23 12.9998H26.5C26.7761 12.9998 27 13.2236 27 13.4998V15.4998C27 15.7759 26.7761 15.9998 26.5 15.9998Z" fill="#393E46"/>
</svg>
