<svg width="24" height="24" viewBox="0 0 24 24" fill="none" xmlns="http://www.w3.org/2000/svg">
<path d="M19.6602 4.17034C17.0202 2.37034 13.7602 3.21034 12.0002 5.27034C10.2402 3.21034 6.98021 2.36034 4.34021 4.17034C2.94021 5.13034 2.06021 6.75034 2.00021 8.46034C1.86021 12.3403 5.30021 15.4503 10.5502 20.2203L10.6502 20.3103C11.4102 21.0003 12.5802 21.0003 13.3402 20.3003L13.4502 20.2003C18.7002 15.4403 22.1302 12.3303 22.0002 8.45034C21.9402 6.75034 21.0602 5.13034 19.6602 4.17034ZM12.1002 18.7303L12.0002 18.8303L11.9002 18.7303C7.14021 14.4203 4.00021 11.5703 4.00021 8.68034C4.00021 6.68034 5.50021 5.18034 7.50021 5.18034C9.04021 5.18034 10.5402 6.17034 11.0702 7.54034H12.9402C13.4602 6.17034 14.9602 5.18034 16.5002 5.18034C18.5002 5.18034 20.0002 6.68034 20.0002 8.68034C20.0002 11.5703 16.8602 14.4203 12.1002 18.7303Z" fill="#393E46"/>
</svg>
