<svg width="32" height="32" viewBox="0 0 32 32" fill="none" xmlns="http://www.w3.org/2000/svg">
<path d="M22.3335 5.33366V26.667C23.8002 26.667 25.0002 25.467 25.0002 24.0003V8.00033C25.0002 6.53366 23.8002 5.33366 22.3335 5.33366Z" fill="#1A1A1A"/>
<path d="M17.0002 2.66699H5.00016C3.5335 2.66699 2.3335 3.86699 2.3335 5.33366V26.667C2.3335 28.1337 3.5335 29.3337 5.00016 29.3337H17.0002C18.4668 29.3337 19.6668 28.1337 19.6668 26.667V5.33366C19.6668 3.86699 18.4668 2.66699 17.0002 2.66699ZM17.0002 26.667H5.00016V5.33366H17.0002V26.667Z" fill="#1A1A1A"/>
<path d="M27.6668 8.00033V24.0003C28.7735 24.0003 29.6668 23.107 29.6668 22.0003V10.0003C29.6668 8.89366 28.7735 8.00033 27.6668 8.00033Z" fill="#1A1A1A"/>
</svg>
