<svg width="221" height="30" viewBox="0 0 221 30" fill="none" xmlns="http://www.w3.org/2000/svg">
<path d="M50.6381 10.3235V17.3562C50.6381 18.7831 51.4331 19.5153 52.9523 19.5153C53.8103 19.5153 54.5369 19.2495 55.1651 18.95V22.9638C54.2423 23.4639 53.2823 23.6941 52.0253 23.6941C48.1595 23.6941 46.3427 21.4387 46.3427 18.0521V10.3229H43.6679V6.37116H46.3427V2.09106H50.6375V6.37116H55.1645V10.3229L50.6381 10.3235Z" fill="white"/>
<path d="M68.2128 6.10828V10.5529H67.4862C64.4118 10.5529 62.628 12.3774 62.628 15.2675V23.295H58.3332V6.37034H62.628V8.56317C63.849 7.00125 65.502 6.10767 67.4862 6.10767H68.2128V6.10828Z" fill="white"/>
<path d="M87.3764 6.37193V21.4719C87.3764 26.6168 83.7428 29.9996 78.158 29.9996C74.9204 29.9996 72.2102 28.8391 70.4264 26.9126L72.6062 23.9606C73.7972 25.2555 75.647 26.0509 77.795 26.0509C81.0326 26.0509 83.0816 24.2263 83.0816 21.4388V20.5409C81.7268 22.004 79.844 22.8651 77.5952 22.8651C72.9044 22.8651 69.3686 19.2159 69.3686 14.4031C69.3686 9.62588 72.9044 5.97363 77.5952 5.97363C79.844 5.97363 81.7262 6.83836 83.0816 8.29779V6.37131H87.3764V6.37193ZM83.0816 14.4031C83.0816 11.8482 81.098 9.88918 78.4238 9.88918C75.779 9.88918 73.7978 11.8482 73.7978 14.4031C73.7978 16.9899 75.779 18.9496 78.4238 18.9496C81.098 18.9502 83.0816 16.9905 83.0816 14.4031Z" fill="white"/>
<path d="M90.444 14.8339C90.444 9.79097 94.3428 5.97363 99.4987 5.97363C104.651 5.97363 108.55 9.79097 108.55 14.8339C108.55 19.8806 104.651 23.6942 99.4987 23.6942C94.3428 23.6942 90.444 19.8806 90.444 14.8339ZM104.123 14.8339C104.123 12.1808 102.172 10.1561 99.498 10.1561C96.8526 10.1561 94.869 12.1808 94.869 14.8339C94.869 17.4901 96.8526 19.5148 99.498 19.5148C102.172 19.5154 104.123 17.4901 104.123 14.8339Z" fill="white"/>
<path d="M125.956 18.9824V23.2957H110.825V19.5808L118.623 11.1845C119.68 10.0239 120.869 8.59763 120.869 7.20264C120.869 5.60819 119.546 4.5796 117.762 4.5796C116.011 4.5796 114.524 5.57567 113.336 7.13759L110.23 4.14877C111.781 1.69326 114.724 0 118.06 0C122.489 0 125.527 2.92255 125.527 6.9369C125.527 9.75757 124.073 11.7491 122.62 13.3079L117.235 18.9818H125.956V18.9824Z" fill="white"/>
<path d="M144.589 18.8512H142.147V23.2964H137.587V18.8512H127.904L126.814 15.1333L137.155 0.4021H142.148V14.5355H144.589V18.8512H144.589ZM137.586 14.5349V6.17477L131.769 14.5349H137.586Z" fill="white"/>
<path d="M146.862 20.6109C146.862 18.9176 148.152 17.6221 149.87 17.6221C151.556 17.6221 152.843 18.9176 152.843 20.6109C152.843 22.3011 151.556 23.5954 149.87 23.5954C148.152 23.596 146.862 22.3011 146.862 20.6109Z" fill="#00ADB5"/>
<path d="M154.529 14.8339C154.529 9.79097 158.427 5.97363 163.583 5.97363C166.984 5.97363 169.826 7.63374 171.348 10.1887L167.613 12.4472C166.854 11.0859 165.367 10.1555 163.583 10.1555C160.938 10.1555 158.954 12.1802 158.954 14.8333C158.954 17.4895 160.938 19.5142 163.583 19.5142C165.367 19.5142 166.853 18.5844 167.613 17.2225L171.348 19.478C169.826 22.036 166.984 23.693 163.583 23.693C158.427 23.6942 154.529 19.8806 154.529 14.8339Z" fill="white"/>
<path d="M172.73 14.8339C172.73 9.79097 176.629 5.97363 181.785 5.97363C186.937 5.97363 190.836 9.79097 190.836 14.8339C190.836 19.8806 186.937 23.6942 181.785 23.6942C176.629 23.6942 172.73 19.8806 172.73 14.8339ZM186.409 14.8339C186.409 12.1808 184.458 10.1561 181.784 10.1561C179.139 10.1561 177.155 12.1808 177.155 14.8339C177.155 17.4901 179.139 19.5148 181.784 19.5148C184.458 19.5154 186.409 17.4901 186.409 14.8339Z" fill="white"/>
<path d="M220.5 12.279V23.2953H216.205V13.5746C216.205 11.5168 214.915 10.1549 212.902 10.1549C210.787 10.1549 209.366 11.5493 209.366 13.6396V23.2953H205.068V13.5746C205.068 11.5168 203.749 10.1549 201.733 10.1549C199.651 10.1549 198.197 11.5493 198.197 13.6396V23.2953H193.902V6.37131H198.197V8.12964C199.454 6.70273 201.136 5.97363 203.185 5.97363C205.566 5.97363 207.415 7.00283 208.473 8.728C209.827 6.93655 211.779 5.97363 214.221 5.97363C218.022 5.97363 220.5 8.46165 220.5 12.279Z" fill="white"/>
<path d="M29.0015 4.19646V0.61377H0V4.19646H12.7171V6.94976H0.0440662V10.5324H12.7171V14.9938H3.63635L5.81609 18.5761H12.7171V21.3294H16.2844V18.5761H28.9352V6.94976H16.2844V4.19646H29.0015ZM25.3686 14.9942H16.2848V10.5328H25.3686V14.9942Z" fill="#00ADB5"/>
<path d="M25.3682 23.0385H3.63402V18.5768H3.63632V14.9941H0.0666504V26.6216H25.3682V29.7398H28.9356V21.0095L25.3682 18.5768V23.0385Z" fill="#AAD8D3"/>
</svg>
