<svg width="24" height="24" viewBox="0 0 24 24" fill="none" xmlns="http://www.w3.org/2000/svg">
<g clip-path="url(#clip0_57113_21735)">
<path d="M1.81444 19.6437L2.87287 21.4718C3.09281 21.8567 3.40894 22.1592 3.78009 22.3791C4.84316 21.0297 5.58316 19.9942 6.00009 19.2725C6.42322 18.5402 6.94325 17.3947 7.56019 15.8361C5.89744 15.6172 4.63744 15.5078 3.78019 15.5078C2.95737 15.5078 1.69731 15.6172 0 15.8361C0 16.2622 0.109969 16.6883 0.329906 17.0732L1.81444 19.6437Z" fill="#0066DA"/>
<path d="M20.2202 22.3791C20.5914 22.1592 20.9075 21.8568 21.1274 21.4719L21.5673 20.7159L23.6705 17.0732C23.8863 16.6967 24 16.2702 24.0003 15.8361C22.2931 15.6172 21.0354 15.5078 20.2271 15.5078C19.3584 15.5078 18.1007 15.6172 16.4539 15.8361C17.0635 17.4033 17.5767 18.5488 17.9934 19.2725C18.4137 20.0027 19.1559 21.0383 20.2202 22.3791Z" fill="#EA4335"/>
<path d="M12.0001 8.13853C13.2301 6.65303 14.0777 5.50756 14.543 4.70212C14.9178 4.05356 15.3302 3.01803 15.7802 1.59553C15.409 1.37559 14.9829 1.26562 14.543 1.26562H9.4571C9.01722 1.26562 8.59122 1.38938 8.21997 1.59553C8.79247 3.22697 9.27822 4.38803 9.67722 5.07872C10.1182 5.84203 10.8925 6.86197 12.0001 8.13853Z" fill="#00832D"/>
<path d="M16.4401 15.8359H7.56027L3.78027 22.3789C4.15134 22.5989 4.57743 22.7088 5.0173 22.7088H18.9831C19.4229 22.7088 19.8491 22.5851 20.2202 22.3788L16.4401 15.8359Z" fill="#2684FC"/>
<path d="M12.0001 8.13861L8.22009 1.5957C7.84884 1.81564 7.53272 2.11798 7.31278 2.50292L0.329906 14.5992C0.114024 14.9758 0.000298266 15.4023 0 15.8363H7.56019L12.0001 8.13861Z" fill="#00AC47"/>
<path d="M20.179 8.55111L16.6875 2.50292C16.4676 2.11798 16.1514 1.81564 15.7802 1.5957L12.0002 8.1387L16.4401 15.8364H23.9866C23.9866 15.4102 23.8766 14.9842 23.6567 14.5993L20.179 8.55111Z" fill="#FFBA00"/>
</g>
<defs>
<clipPath id="clip0_57113_21735">
<rect width="24" height="21.4688" fill="white" transform="translate(0 1.26562)"/>
</clipPath>
</defs>
</svg>
