<svg width="32" height="32" viewBox="0 0 32 32" fill="none" xmlns="http://www.w3.org/2000/svg">
<path d="M26.7861 13.8457H25.9V13.8H16V18.2H22.2167C21.3097 20.7614 18.8727 22.6 16 22.6C12.3552 22.6 9.4 19.6448 9.4 16C9.4 12.3552 12.3552 9.4 16 9.4C17.6825 9.4 19.2131 10.0347 20.3786 11.0714L23.4899 7.9601C21.5253 6.12915 18.8974 5 16 5C9.92525 5 5 9.92525 5 16C5 22.0748 9.92525 27 16 27C22.0748 27 27 22.0748 27 16C27 15.2625 26.9241 14.5425 26.7861 13.8457Z" fill="#FFCC00"/>
<path d="M6.26562 10.88L9.87967 13.5305C10.8576 11.1094 13.2259 9.4 15.9973 9.4C17.6798 9.4 19.2104 10.0347 20.3759 11.0714L23.4872 7.9601C21.5226 6.12915 18.8947 5 15.9973 5C11.7722 5 8.10812 7.38535 6.26562 10.88Z" fill="#FF5943"/>
<path d="M15.9959 26.9969C18.8372 26.9969 21.4189 25.9095 23.3708 24.1413L19.9663 21.2604C18.8619 22.0969 17.4891 22.5969 15.9959 22.5969C13.1348 22.5969 10.7054 20.7725 9.79022 18.2266L6.20312 20.9903C8.02362 24.5527 11.7207 26.9969 15.9959 26.9969Z" fill="#2AA44B"/>
<path d="M26.786 13.8425H25.9V13.7969H16V18.1969H22.2167C21.7811 19.4272 20.9896 20.4882 19.9688 21.2609L19.9704 21.2598L23.375 24.1407C23.1341 24.3596 27 21.4969 27 15.9969C27 15.2593 26.9241 14.5394 26.786 13.8425Z" fill="#007AFF"/>
</svg>
