<svg xmlns="http://www.w3.org/2000/svg" width="45" height="46" viewBox="0 0 45 46" fill="none">
  <path d="M22.5 15.9688C22.1126 15.9688 21.7969 15.6537 21.7969 15.2656H20.3906C20.3906 16.1811 20.9805 16.9545 21.7969 17.2456V18.0781H23.2031V17.2456C24.0195 16.9545 24.6094 16.1811 24.6094 15.2656C24.6094 14.1027 23.663 13.1562 22.5 13.1562C22.1126 13.1562 21.7969 12.8412 21.7969 12.4531C21.7969 12.065 22.1126 11.75 22.5 11.75C22.8874 11.75 23.2031 12.065 23.2031 12.4531H24.6094C24.6094 11.5377 24.0195 10.7642 23.2031 10.4731V9.64062H21.7969V10.4731C20.9805 10.7642 20.3906 11.5377 20.3906 12.4531C20.3906 13.6161 21.337 14.5625 22.5 14.5625C22.8874 14.5625 23.2031 14.8775 23.2031 15.2656C23.2031 15.6537 22.8874 15.9688 22.5 15.9688Z" fill="white"/>
  <path d="M22.5 20.8906C26.377 20.8906 29.5312 17.7364 29.5312 13.8594C29.5312 9.98234 26.377 6.82812 22.5 6.82812C18.623 6.82812 15.4688 9.98234 15.4688 13.8594C15.4688 17.7364 18.623 20.8906 22.5 20.8906ZM22.5 8.23438C25.6015 8.23438 28.125 10.7579 28.125 13.8594C28.125 16.9609 25.6015 19.4844 22.5 19.4844C19.3985 19.4844 16.875 16.9609 16.875 13.8594C16.875 10.7579 19.3985 8.23438 22.5 8.23438Z" fill="white"/>
  <path d="M39.4564 35.1693C39.5464 35.3402 39.7032 35.466 39.8888 35.5173C39.9507 35.5349 40.0147 35.5434 40.078 35.5434C40.2045 35.5434 40.329 35.5089 40.4401 35.4428L43.9557 33.3334L43.2322 32.1276L40.3529 33.8552L34.7089 23.1937L39.6898 20.7032L39.0606 19.4453L33.4355 22.2578C33.2661 22.3422 33.1381 22.492 33.0805 22.672C33.0221 22.8527 33.0397 23.0481 33.1283 23.2155L33.5677 24.0452C33.4025 24.164 33.193 24.3159 32.9103 24.5205C32.1172 25.097 30.5267 26.253 29.9938 26.5265L26.7601 25.7186C25.6801 25.4479 24.5326 25.6919 23.653 26.3507L19.8034 25.7095C19.7267 25.6968 19.6487 25.6968 19.572 25.7095L15.6085 26.3697L12.5907 24.5591C12.6547 24.4038 12.6737 24.2329 12.6202 24.0726C12.5584 23.8841 12.4191 23.7316 12.2384 23.6507L5.91031 20.8382L5.33937 22.1235L10.9616 24.6224L5.31406 34.6623L2.37008 33.4846L1.84766 34.7903L5.36328 36.1966C5.44906 36.2303 5.53695 36.2472 5.62484 36.2472C5.87234 36.2472 6.11 36.1157 6.23797 35.8886L6.28648 35.8021L11.4538 37.5248C11.5248 37.6443 11.607 37.7575 11.7111 37.8517L12.5443 38.609C12.7355 38.7827 12.9634 38.8916 13.1996 38.9409C13.2741 39.1743 13.4028 39.3895 13.5863 39.5561L14.4202 40.3134C14.6115 40.487 14.8393 40.596 15.0755 40.6459C15.1501 40.8794 15.2787 41.0945 15.4623 41.2619L16.2969 42.0198C16.4881 42.1935 16.7152 42.3018 16.9522 42.351C17.0267 42.5845 17.1554 42.7996 17.3389 42.9663L18.1735 43.7249C18.4421 43.9682 18.7803 44.0891 19.1185 44.0891C19.4757 44.0891 19.8329 43.9548 20.1057 43.6862L21.152 42.6555L23.6487 43.6834C23.975 43.8838 24.3392 43.9802 24.6992 43.9802C25.3517 43.9802 25.9923 43.6652 26.3811 43.083C26.6286 42.7117 26.7284 42.2835 26.7066 41.8638C26.7411 41.8652 26.7748 41.8708 26.8093 41.8708C27.4618 41.8708 28.1023 41.5558 28.4912 40.9736C28.7387 40.6023 28.8385 40.1741 28.8167 39.7544C28.8512 39.7558 28.8849 39.7614 28.9194 39.7614C29.5719 39.7614 30.2124 39.4464 30.6013 38.8642C30.7032 38.7109 30.7735 38.5464 30.8284 38.3784C31.1159 38.5232 31.4246 38.597 31.7319 38.597C32.3844 38.597 33.0249 38.282 33.4138 37.6998C33.4236 37.6851 33.4285 37.6689 33.4384 37.6541L39.3341 34.9323L39.4564 35.1693ZM13.49 37.5684L12.6561 36.8104L13.7783 35.7058C13.9906 35.4963 14.3309 35.4892 14.551 35.6903C14.667 35.7951 14.7324 35.9392 14.7352 36.0953C14.738 36.2507 14.679 36.3977 14.5679 36.5066L13.49 37.5684ZM15.3659 39.2727L14.5327 38.5155L15.6549 37.4109C15.8673 37.2013 16.2076 37.1943 16.4277 37.3954C16.5437 37.5002 16.6091 37.6443 16.6119 37.8004C16.6147 37.9558 16.5549 38.1027 16.4445 38.2124L15.3659 39.2727ZM17.2981 40.9244L17.2426 40.9792L16.408 40.222L17.5302 39.1166C17.7425 38.9064 18.0828 38.9008 18.3036 39.1019C18.4189 39.2066 18.4843 39.3508 18.4878 39.5062C18.4906 39.6623 18.4309 39.8085 18.3205 39.9182L17.2981 40.9244ZM20.1964 41.6226L19.1185 42.6843L18.2846 41.927L19.4068 40.8217C19.6191 40.6115 19.9587 40.6059 20.1802 40.807C20.2955 40.9117 20.3609 41.0559 20.3645 41.2113C20.3673 41.3673 20.3075 41.5136 20.1964 41.6226ZM32.2409 36.9201C32.0539 37.1992 31.6735 37.2766 31.3916 37.0881L27.0891 34.2433L26.3305 35.4273L29.4734 37.5058C29.5529 37.6907 29.5466 37.908 29.4284 38.0852C29.2414 38.3657 28.861 38.4423 28.5812 38.2546C28.5566 38.2384 24.9214 36.43 24.9214 36.43L24.2534 37.6668L27.2136 39.3972C27.44 39.5976 27.4878 39.94 27.3177 40.1945C27.1299 40.4744 26.7495 40.5517 26.4704 40.364C26.4458 40.3478 22.8106 38.5394 22.8106 38.5394L22.1427 39.7762L25.1028 41.5066C25.3292 41.707 25.377 42.0494 25.2069 42.3039C25.0198 42.5845 24.6402 42.6604 24.3596 42.4734C24.3209 42.448 21.7503 41.3835 21.7503 41.3835C21.7559 41.3167 21.7686 41.2506 21.7672 41.1831C21.7559 40.6445 21.5211 40.1277 21.1224 39.7656C20.7638 39.4394 20.3159 39.277 19.8638 39.2622C19.8027 38.8037 19.591 38.3734 19.2458 38.0605C18.8872 37.7343 18.4393 37.5719 17.9879 37.5571C17.9274 37.0987 17.7151 36.6677 17.3698 36.3541C17.012 36.0285 16.5634 35.8661 16.1112 35.8513C16.0501 35.3929 15.8384 34.9626 15.4939 34.6497C14.7219 33.9487 13.5336 33.9712 12.7883 34.7038L11.6654 35.8091C11.5916 35.8823 11.5283 35.9638 11.4727 36.0503L6.98469 34.5541L11.9122 25.7945L15.1037 27.7091C15.2134 27.7752 15.3385 27.8097 15.4658 27.8097C15.5045 27.8097 15.5431 27.8062 15.5818 27.7998L19.6873 27.1157L22.3824 27.565L20.3546 29.5928C19.9243 30.0224 19.6873 30.5955 19.6873 31.2044C19.6873 31.8133 19.9243 32.3863 20.3553 32.8166C20.7666 33.228 21.3066 33.4333 21.8473 33.4333C22.374 33.4333 22.9013 33.2385 23.3084 32.8469L25.1584 31.3668L32.108 36.0988C32.3584 36.2943 32.4174 36.655 32.2409 36.9201ZM33.65 36.006C33.5298 35.6095 33.2935 35.241 32.9356 34.9626L26.3066 30.4478L26.7966 30.0562L25.9184 28.9579C25.9184 28.9579 22.3627 31.8041 22.3445 31.8224C22.0702 32.0966 21.6245 32.098 21.3502 31.8224C21.1843 31.6572 21.0936 31.4378 21.0936 31.2044C21.0936 30.9709 21.1843 30.7516 21.3495 30.587L24.2534 27.6831C24.8166 27.1206 25.647 26.8935 26.4191 27.0827L29.8398 27.9377C30.3052 28.0565 30.6941 27.8709 33.7379 25.6588C33.9038 25.5379 34.0733 25.4148 34.2322 25.3009L38.6717 33.6878L33.65 36.006Z" fill="white"/>
  <path d="M42.1868 7.53017C42.255 7.53017 42.3232 7.52032 42.3907 7.49993C42.6389 7.4254 42.826 7.21939 42.8766 6.96486L43.5797 3.44923C43.6261 3.21861 43.5537 2.98025 43.3878 2.81431C43.2211 2.64837 42.9835 2.57806 42.7528 2.62236L39.2372 3.32548C38.9834 3.37611 38.7774 3.56314 38.7021 3.81064C38.6269 4.05954 38.6944 4.32814 38.8779 4.51165L41.6904 7.32415C41.8233 7.45775 42.0033 7.53017 42.1868 7.53017ZM41.9935 4.2072L41.7551 5.4004L40.801 4.44626L41.9935 4.2072Z" fill="white"/>
  <path d="M21.7969 1.90625H23.2031V4.71875H21.7969V1.90625Z" fill="white"/>
  <path d="M26.2188 5.625L28.2075 3.63626L29.2019 4.63063L27.2131 6.61937L26.2188 5.625Z" fill="white"/>
  <path d="M15.6719 4.63281L16.6662 3.63844L18.655 5.62718L17.6606 6.62155L15.6719 4.63281Z" fill="white"/>
  <path d="M37.9688 6.82812H39.375V8.23438H37.9688V6.82812Z" fill="white"/>
  <path d="M35.8594 8.9375H37.2656V10.3438H35.8594V8.9375Z" fill="white"/>
  <path d="M33.75 11.0469H35.1562V12.4531H33.75V11.0469Z" fill="white"/>
  <path d="M30.9375 11.0469H32.3438V12.4531H30.9375V11.0469Z" fill="white"/>
  <path d="M12.6562 13.1562H14.0625V14.5625H12.6562V13.1562Z" fill="white"/>
  <path d="M9.84375 13.1562H11.25V14.5625H9.84375V13.1562Z" fill="white"/>
  <path d="M7.03125 14.5625H8.4375V15.9688H7.03125V14.5625Z" fill="white"/>
  <path d="M4.21875 15.9688H5.625V17.375H4.21875V15.9688Z" fill="white"/>
  <path d="M1.40625 17.375H2.8125V18.7812H1.40625V17.375Z" fill="white"/>
</svg>