<svg width="192" height="193" viewBox="0 0 192 193" fill="none" xmlns="http://www.w3.org/2000/svg">
<g id="history_toggle_off">
<g id="Vector" filter="url(#filter0_i_57554_250269)">
<path d="M120.798 155.46L128.798 169.38C121.118 172.9 112.718 175.22 103.998 176.1V159.94C109.918 159.22 115.518 157.7 120.798 155.46ZM32.5584 104.5H16.3984C17.2784 113.3 19.5984 121.62 23.1184 129.3L37.0384 121.3C34.7984 116.02 33.2784 110.42 32.5584 104.5ZM120.798 37.5404L128.798 23.6204C121.118 20.1004 112.798 17.7804 103.998 16.9004V33.0604C109.918 33.7804 115.518 35.3004 120.798 37.5404ZM159.438 88.5004H175.598C174.718 79.7004 172.398 71.3804 168.878 63.7004L154.958 71.7004C157.198 76.9804 158.718 82.5804 159.438 88.5004ZM71.1984 155.46L63.1984 169.38C70.8784 172.9 79.2784 175.22 87.9984 176.1V159.94C82.0784 159.22 76.4784 157.7 71.1984 155.46ZM87.9984 33.0604V16.9004C79.1984 17.7804 70.8784 20.1004 63.1984 23.6204L71.1984 37.5404C76.4784 35.3004 82.0784 33.7804 87.9984 33.0604ZM146.878 57.8604L160.798 49.7804C155.758 42.8204 149.598 36.6604 142.638 31.6204L134.558 45.5404C139.278 49.1404 143.358 53.2204 146.878 57.8604ZM37.0384 71.7004L23.1184 63.7004C19.5984 71.3804 17.2784 79.7004 16.3984 88.5004H32.5584C33.2784 82.5804 34.7984 76.9804 37.0384 71.7004ZM159.438 104.5C158.718 110.42 157.198 116.02 154.958 121.3L168.878 129.3C172.398 121.62 174.718 113.22 175.598 104.5H159.438ZM134.638 147.38L142.718 161.3C149.678 156.26 155.838 150.1 160.878 143.14L146.958 135.06C143.358 139.78 139.278 143.86 134.638 147.38ZM57.3584 45.6204L49.3584 31.6204C42.3184 36.7404 36.2384 42.8204 31.1984 49.8604L45.1184 57.9404C48.6384 53.2204 52.7184 49.1404 57.3584 45.6204ZM45.1184 135.14L31.1984 143.14C36.2384 150.1 42.3984 156.26 49.3584 161.3L57.4384 147.38C52.7184 143.86 48.6384 139.78 45.1184 135.14ZM103.998 56.5004H87.9984V99.7804L122.318 134.1L133.598 122.82L103.998 93.2204V56.5004Z" fill="#F2F2F2"/>
</g>
</g>
<defs>
<filter id="filter0_i_57554_250269" x="16.3984" y="16.9004" width="159.2" height="161.2" filterUnits="userSpaceOnUse" color-interpolation-filters="sRGB">
<feFlood flood-opacity="0" result="BackgroundImageFix"/>
<feBlend mode="normal" in="SourceGraphic" in2="BackgroundImageFix" result="shape"/>
<feColorMatrix in="SourceAlpha" type="matrix" values="0 0 0 0 0 0 0 0 0 0 0 0 0 0 0 0 0 0 127 0" result="hardAlpha"/>
<feOffset dy="2"/>
<feGaussianBlur stdDeviation="2.5"/>
<feComposite in2="hardAlpha" operator="arithmetic" k2="-1" k3="1"/>
<feColorMatrix type="matrix" values="0 0 0 0 0 0 0 0 0 0 0 0 0 0 0 0 0 0 0.2 0"/>
<feBlend mode="normal" in2="shape" result="effect1_innerShadow_57554_250269"/>
</filter>
</defs>
</svg>
