<svg width="44" height="44" viewBox="0 0 44 44" fill="none" xmlns="http://www.w3.org/2000/svg">
<g id="how_to_reg">
<g id="Vector">
<path fill-rule="evenodd" clip-rule="evenodd" d="M15.5833 30.7083L21.0833 25.3183C20.3683 25.245 19.8366 25.2083 19.2499 25.2083C14.3549 25.2083 4.58325 27.665 4.58325 32.5417V36.2083H21.0833L15.5833 30.7083ZM19.2499 21.5417C23.3016 21.5417 26.5833 18.26 26.5833 14.2083C26.5833 10.1567 23.3016 6.875 19.2499 6.875C15.1983 6.875 11.9166 10.1567 11.9166 14.2083C11.9166 18.26 15.1983 21.5417 19.2499 21.5417Z" fill="#00ABB2"/>
<path fill-rule="evenodd" clip-rule="evenodd" d="M27.4449 37.125L21.0833 30.7083L23.6499 28.1233L27.4449 31.9367L36.8499 22.4583L39.4166 25.0433L27.4449 37.125Z" fill="#00ABB2"/>
</g>
</g>
</svg>
