<svg width="44" height="44" viewBox="0 0 44 44" fill="none" xmlns="http://www.w3.org/2000/svg">
<rect x="0.5" y="0.499756" width="43" height="43" rx="21.5" fill="#F3F3F3"/>
<rect x="0.5" y="0.499756" width="43" height="43" rx="21.5" stroke="#F3F3F3"/>
<path fill-rule="evenodd" clip-rule="evenodd" d="M26 12.9998H18C15.2386 12.9998 13 15.2383 13 17.9998V25.9998C13 28.7612 15.2386 30.9998 18 30.9998H26C28.7614 30.9998 31 28.7612 31 25.9998V17.9998C31 15.2383 28.7614 12.9998 26 12.9998ZM29.25 25.9999C29.2445 27.7925 27.7927 29.2444 26 29.2499H18C16.2074 29.2444 14.7555 27.7925 14.75 25.9999V17.9998C14.7555 16.2072 16.2074 14.7553 18 14.7498H26C27.7927 14.7553 29.2445 16.2072 29.25 17.9998V25.9999ZM26.75 18.2498C27.3023 18.2498 27.75 17.8021 27.75 17.2498C27.75 16.6976 27.3023 16.2498 26.75 16.2498C26.1977 16.2498 25.75 16.6976 25.75 17.2498C25.75 17.8021 26.1977 18.2498 26.75 18.2498ZM22 17.4998C19.5147 17.4998 17.5 19.5145 17.5 21.9998C17.5 24.4851 19.5147 26.4998 22 26.4998C24.4853 26.4998 26.5 24.4851 26.5 21.9998C26.5027 20.8055 26.0294 19.6593 25.1849 18.8148C24.3404 17.9703 23.1943 17.4971 22 17.4998ZM19.25 21.9999C19.25 23.5187 20.4812 24.7499 22 24.7499C23.5188 24.7499 24.75 23.5187 24.75 21.9999C24.75 20.4811 23.5188 19.2498 22 19.2498C20.4812 19.2498 19.25 20.4811 19.25 21.9999Z" fill="#393E46"/>
</svg>
