<svg width="26" height="26" viewBox="0 0 26 26" fill="none" xmlns="http://www.w3.org/2000/svg">
<g clipPath="url(#clip0_5527_21607)">
<path d="M20.5834 3.25C20.5834 5.63333 15.925 9.75 10.8334 9.75V16.25C15.925 16.25 20.5834 20.15 20.5834 22.75H22.75V14.8417C23.4 14.5167 23.8334 13.7583 23.8334 13C23.8334 12.2417 23.4 11.4833 22.75 11.1583V3.25H20.5834ZM5.41669 9.75C4.55002 9.75 3.79169 10.2917 3.46669 11.05C2.70835 11.375 2.16669 12.1333 2.16669 13C2.16669 13.8667 2.70835 14.625 3.46669 14.95C3.79169 15.7083 4.55002 16.25 5.41669 16.25H5.63335L8.01669 23.8333L11.8084 22.6417L9.75002 16.25V9.75H5.41669Z" fill="#00ABB2"/>
</g>
<defs>
<clipPath id="clip0_5527_21607">
<rect width="26" height="26" fill="white"/>
</clipPath>
</defs>
</svg>
