<svg width="44" height="44" viewBox="0 0 44 44" fill="none" xmlns="http://www.w3.org/2000/svg">
<rect x="0.5" y="0.499756" width="43" height="43" rx="21.5" fill="#F3F3F3"/>
<rect x="0.5" y="0.499756" width="43" height="43" rx="21.5" stroke="#F3F3F3"/>
<path fill-rule="evenodd" clip-rule="evenodd" d="M13.5 14.9998C13.5 13.8952 14.3954 12.9998 15.5 12.9998C16.0304 12.9998 16.5391 13.2105 16.9142 13.5855C17.2893 13.9606 17.5 14.4693 17.5 14.9998C17.5 16.1043 16.6046 16.9998 15.5 16.9998C14.3954 16.9998 13.5 16.1043 13.5 14.9998ZM31 23.4097C31.0344 21.2446 29.5574 19.3473 27.45 18.8497C26.0377 18.5456 24.5657 18.9443 23.5 19.9197V19.4997C23.5 19.2235 23.2761 18.9997 23 18.9997H20.5C20.2238 18.9997 20 19.2235 20 19.4997V29.4997C20 29.7759 20.2238 29.9997 20.5 29.9997H23C23.2761 29.9997 23.5 29.7759 23.5 29.4997V23.8597C23.4753 22.8554 24.1752 21.9784 25.16 21.7797C25.7463 21.6785 26.3473 21.8436 26.7996 22.2302C27.252 22.6168 27.5087 23.1848 27.5 23.7797V29.4997C27.5 29.7759 27.7238 29.9997 28 29.9997H30.5C30.7761 29.9997 31 29.7759 31 29.4997V23.4097ZM17.5 19.4998V29.4998C17.5 29.7759 17.2761 29.9998 17 29.9998H14.5C14.2238 29.9998 14 29.7759 14 29.4998V19.4998C14 19.2236 14.2238 18.9998 14.5 18.9998H17C17.2761 18.9998 17.5 19.2236 17.5 19.4998Z" fill="#393E46"/>
</svg>
