<svg width="25" height="24" viewBox="0 0 25 24" fill="none" xmlns="http://www.w3.org/2000/svg">
<path d="M3.41821 13H5.41821V11H3.41821V13ZM3.41821 17H5.41821V15H3.41821V17ZM3.41821 9H5.41821V7H3.41821V9ZM7.41821 13H21.4182V11H7.41821V13ZM7.41821 17H21.4182V15H7.41821V17ZM7.41821 7V9H21.4182V7H7.41821ZM3.41821 13H5.41821V11H3.41821V13ZM3.41821 17H5.41821V15H3.41821V17ZM3.41821 9H5.41821V7H3.41821V9ZM7.41821 13H21.4182V11H7.41821V13ZM7.41821 17H21.4182V15H7.41821V17ZM7.41821 7V9H21.4182V7H7.41821Z" fill="#262626"/>
</svg>
