<svg width="24" height="24" viewBox="0 0 24 24" fill="none" xmlns="http://www.w3.org/2000/svg">
<g id="location_on">
<mask id="mask0_287_23108" style="mask-type:alpha" maskUnits="userSpaceOnUse" x="0" y="0" width="24" height="24">
<rect id="Bounding box" width="24" height="24" fill="#D9D9D9"/>
</mask>
<g mask="url(#mask0_287_23108)">
<path id="location_on_2" d="M12.0004 20.6388C11.8222 20.6388 11.6565 20.6093 11.5033 20.5503C11.3501 20.4913 11.1946 20.3997 11.0369 20.2753C10.5562 19.8651 9.95396 19.3051 9.23024 18.5955C8.50653 17.8859 7.80172 17.0891 7.11582 16.2052C6.42992 15.3212 5.84787 14.3741 5.36967 13.3638C4.89145 12.3535 4.65234 11.3394 4.65234 10.3215C4.65234 8.28049 5.33632 6.53306 6.70427 5.07921C8.0722 3.62536 9.83758 2.89844 12.0004 2.89844C14.1465 2.89844 15.9078 3.62536 17.284 5.07921C18.6603 6.53306 19.3484 8.28049 19.3484 10.3215C19.3484 11.3394 19.1052 12.3561 18.6186 13.3715C18.1321 14.3869 17.5516 15.3382 16.8773 16.2254C16.2029 17.1125 15.5039 17.9052 14.7802 18.6032C14.0565 19.3013 13.4542 19.8555 12.9734 20.2657C12.8181 20.3901 12.6623 20.4833 12.5062 20.5455C12.3501 20.6077 12.1815 20.6388 12.0004 20.6388ZM12.0021 11.8638C12.4497 11.8638 12.8292 11.7075 13.1408 11.3948C13.4523 11.0821 13.6081 10.702 13.6081 10.2544C13.6081 9.80683 13.4517 9.42727 13.1391 9.11574C12.8264 8.8042 12.4463 8.64844 11.9987 8.64844C11.5511 8.64844 11.1716 8.80477 10.86 9.11744C10.5485 9.4301 10.3927 9.81023 10.3927 10.2578C10.3927 10.7054 10.5491 11.085 10.8617 11.3965C11.1744 11.708 11.5545 11.8638 12.0021 11.8638Z" fill="#00ADB5"/>
</g>
</g>
</svg>
