<svg width="24" height="28" viewBox="0 0 24 28" fill="none" xmlns="http://www.w3.org/2000/svg">
<mask id="mask0_287_22496" style="mask-type:alpha" maskUnits="userSpaceOnUse" x="0" y="0" width="24" height="28">
<rect width="24" height="28" fill="#D9D9D9"/>
</mask>
<g mask="url(#mask0_287_22496)">
<path d="M11.469 24.9002C11.2593 24.9002 11.0644 24.8658 10.8842 24.797C10.7039 24.7282 10.521 24.6212 10.3355 24.4761C9.76993 23.9975 9.06142 23.3443 8.20998 22.5164C7.35855 21.6885 6.52937 20.7589 5.72242 19.7276C4.91548 18.6963 4.23072 17.5914 3.66813 16.4127C3.10552 15.2341 2.82422 14.051 2.82422 12.8633C2.82422 10.4822 3.6289 8.44352 5.23825 6.74736C6.84758 5.0512 8.92449 4.20312 11.469 4.20312C13.9939 4.20312 16.0659 5.0512 17.685 6.74736C19.3042 8.44352 20.1137 10.4822 20.1137 12.8633C20.1137 14.051 19.8275 15.2371 19.2551 16.4217C18.6827 17.6063 17.9999 18.7162 17.2065 19.7512C16.4131 20.7862 15.5907 21.711 14.7393 22.5254C13.8879 23.3398 13.1794 23.9863 12.6137 24.4649C12.4309 24.61 12.2477 24.7188 12.0641 24.7914C11.8804 24.8639 11.682 24.9002 11.469 24.9002ZM11.471 14.6627C11.9976 14.6627 12.4441 14.4803 12.8106 14.1155C13.1771 13.7508 13.3604 13.3073 13.3604 12.7851C13.3604 12.2629 13.1764 11.8201 12.8086 11.4566C12.4408 11.0932 11.9936 10.9115 11.467 10.9115C10.9404 10.9115 10.4939 11.0938 10.1274 11.4586C9.76086 11.8234 9.5776 12.2669 9.5776 12.7891C9.5776 13.3112 9.76152 13.7541 10.1294 14.1175C10.4972 14.481 10.9444 14.6627 11.471 14.6627Z" fill="#00ADB5"/>
</g>
</svg>
