<svg width="24" height="28" viewBox="0 0 24 28" fill="none" xmlns="http://www.w3.org/2000/svg">
<mask id="mask0_5260_104198" style="mask-type:alpha" maskUnits="userSpaceOnUse" x="0" y="0" width="24" height="28">
<rect width="24" height="28" fill="#D9D9D9"/>
</mask>
<g mask="url(#mask0_5260_104198)">
<path d="M11.468 24.897C11.2584 24.897 11.0634 24.8626 10.8832 24.7938C10.7029 24.725 10.5201 24.618 10.3345 24.473C9.76895 23.9943 9.06044 23.3411 8.20901 22.5132C7.35758 21.6853 6.52839 20.7558 5.72145 19.7245C4.91451 18.6932 4.22974 17.5882 3.66715 16.4096C3.10455 15.2309 2.82324 14.0478 2.82324 12.8602C2.82324 10.479 3.62792 8.44035 5.23727 6.74419C6.84661 5.04803 8.92352 4.19995 11.468 4.19995C13.9929 4.19995 16.0649 5.04803 17.684 6.74419C19.3032 8.44035 20.1128 10.479 20.1128 12.8602C20.1128 14.0478 19.8266 15.2339 19.2542 16.4185C18.6818 17.6032 17.9989 18.713 17.2055 19.748C16.4122 20.7831 15.5898 21.7078 14.7383 22.5222C13.8869 23.3366 13.1784 23.9831 12.6128 24.4617C12.43 24.6068 12.2467 24.7157 12.0631 24.7882C11.8794 24.8607 11.6811 24.897 11.468 24.897ZM11.47 14.6595C11.9966 14.6595 12.4431 14.4771 12.8096 14.1124C13.1761 13.7476 13.3594 13.3041 13.3594 12.7819C13.3594 12.2597 13.1755 11.8169 12.8076 11.4535C12.4398 11.09 11.9926 10.9083 11.466 10.9083C10.9394 10.9083 10.4929 11.0907 10.1264 11.4555C9.75988 11.8202 9.57662 12.2637 9.57662 12.7859C9.57662 13.3081 9.76055 13.7509 10.1284 14.1143C10.4962 14.4778 10.9434 14.6595 11.47 14.6595Z" fill="white"/>
</g>
</svg>
