<svg xmlns="http://www.w3.org/2000/svg" width="100%" viewBox="0 0 40 40" fill="none" class="navbar__logo__svg"><g clip-path="url(#clip0_251_604)"><path d="M26.2388 35.5168C27.7872 36.086 29.424 35.9572 30.694 34.8232C31.0716 34.4816 31.838 33.8852 31.658 33.3148C31.3436 32.812 30.4584 33.1628 29.9712 32.944C29.698 32.7576 30.3124 32.5324 30.4536 32.4524C30.772 32.2972 31.0792 32.0852 31.3852 31.9004C31.7024 31.7016 32.0716 31.636 32.4412 31.6076C34.2664 31.4548 35.7176 29.9272 36.1744 28.1824C36.2356 27.9508 36.264 27.59 36.1164 27.438C35.786 27.0728 34.8932 27.7348 34.346 27.7576C34.0492 27.6872 34.562 27.1484 34.64 27.008C34.9744 26.5304 35.2996 25.9892 35.8072 25.6908C35.938 25.6116 36.0776 25.5444 36.2196 25.4708C38.2556 24.6888 38.8252 19.072 37.2444 20.3788C36.9048 20.6292 36.622 21.1064 36.2456 21.302C35.8652 21.4092 36.24 20.5128 36.268 20.3376C36.3968 19.9296 36.3996 19.4808 36.5584 19.0984C36.6032 18.9944 36.6636 18.8848 36.726 18.7892C37.782 17.4308 38.0288 15.8228 37.2956 14.266C37.0792 13.8396 36.7856 13.104 36.2908 13.0092C35.9524 12.9928 35.7336 13.594 35.552 14.1492C35.5044 14.2948 35.4356 14.4944 35.33 14.5924C35.0412 14.7576 34.9584 13.6764 34.9168 13.4864C34.872 13.1288 34.7584 12.8108 34.754 12.5036C34.7476 12.1916 34.8544 11.8892 34.884 11.5792C35.0408 9.9716 34.6068 8.95759 33.4352 7.71799C33.0596 7.36039 32.5204 6.86199 32.0264 7.03319C31.4956 7.39239 31.9256 8.2304 31.7948 8.7664C31.6452 9.0972 31.3148 8.44 31.2152 8.3128C30.85 7.794 30.392 7.33239 30.2664 6.69679C29.9664 4.70559 28.3664 3.52199 26.474 3.15639C25.5028 2.98359 25.3672 3.44279 25.892 4.36679C25.9928 4.55279 26.1388 4.79439 26.1536 4.99919C26.1312 5.36039 25.2616 4.62639 25.08 4.57679C24.2668 4.19559 24.1744 3.99079 23.6648 3.26919C22.5756 1.81759 19.4176 1.55119 18.5428 2.14839C17.7992 2.65919 19.042 3.22879 19.376 3.58679C19.534 3.72959 19.8868 4.03639 19.4144 3.99919C19.216 3.98279 18.7892 3.92279 18.4504 3.87199C18.0996 3.82159 17.7336 3.81559 17.3936 3.72239C17.0132 3.61159 16.6932 3.35479 16.3296 3.20239C15.0236 2.60919 13.5112 2.81159 12.312 3.56879C11.9916 3.75439 11.5896 4.05679 11.43 4.32479C11.1288 4.77799 11.6524 5.04559 12.0336 5.14039C12.1944 5.21839 13.3444 5.288 13.0104 5.5628C12.6744 5.7688 12.2384 5.83999 11.86 5.95599C11.5148 6.04879 11.2268 6.17039 10.92 6.19679C10.7088 6.21919 10.494 6.19399 10.2824 6.17559C9.69437 6.12199 9.06357 6.22 8.49117 6.3996C7.40677 6.6984 6.04757 8.0408 5.75717 9.104C5.57157 10.0284 6.88357 9.6472 7.39037 9.532C7.78677 9.4728 7.78397 9.6596 7.52597 9.892C7.28517 10.1112 7.00477 10.3088 6.76357 10.528C6.35437 10.9424 5.97797 11.2228 5.39997 11.3728C3.71877 11.9076 2.76397 13.4432 2.55797 15.1588C2.51277 15.51 2.45237 16.014 2.81397 16.2056C3.39917 16.394 3.95317 15.546 4.40037 15.4744C4.76237 15.484 4.26837 16.2296 4.18637 16.4276C3.94797 16.9364 3.75037 17.4212 3.35357 17.8148C2.32397 18.8776 1.55317 20.1736 1.86717 21.6964C1.94397 22.2136 2.09077 22.94 2.32717 23.3472C2.88317 24.222 3.56757 22.532 3.86037 22.1892C4.24717 21.8012 4.04077 23.7616 4.07557 24.0584C4.09397 24.6348 3.72877 25.0428 3.58237 25.578C3.00037 27.1312 4.44477 30.59 5.67557 30.3108C6.10237 30.1244 5.87557 28.4744 6.27997 28.5764C6.40397 28.6404 6.46517 28.8156 6.52837 28.9412C6.67677 29.2996 6.82437 29.6764 6.98917 30.0312C7.15877 30.3744 7.23757 30.7372 7.22797 31.1248C7.21237 31.9676 7.44757 32.8248 7.91717 33.5284C8.27837 34.2868 11.2952 36.3744 11.1404 34.8108C11.1312 34.406 10.852 33.8744 10.8396 33.5152C10.904 33.114 11.5504 33.9472 11.6888 34.0412C11.7824 34.128 11.8748 34.206 11.9656 34.28C12.2524 34.5028 12.5196 34.752 12.702 35.0692C12.9416 35.468 13.1052 35.96 13.4068 36.342C14.2772 37.4628 15.7476 37.9644 17.1436 37.9276C17.4788 37.9148 17.9072 37.856 17.98 37.5216C18.1212 36.9848 16.8524 36.2036 17.0652 35.9236C17.1688 35.8452 17.4296 35.9624 17.5772 36.0024C17.848 36.0988 18.1188 36.2204 18.392 36.3092C19.1904 36.5076 19.3832 36.6488 19.9836 37.186C21.1984 38.2084 22.7768 38.2828 24.2348 37.7244C24.5976 37.604 25.194 37.354 25.3208 37.0192C25.4652 36.5432 24.2588 36.2712 23.8672 35.8764C23.6584 35.5016 24.7956 35.5684 25.0692 35.5472C25.4608 35.548 25.842 35.4388 26.23 35.5148L26.2392 35.5164L26.2388 35.5168ZM29.0472 31.692C28.9668 31.5192 29.08 31.1472 29.0896 30.92C29.1964 30.0916 28.9496 29.6492 28.0756 30.0792C26.684 30.6872 25.8072 31.8688 25.3376 33.2792C25.2524 33.4624 25.128 33.6168 24.9704 33.7404C24.7824 33.8804 23.5748 34.7376 23.5392 34.3472C23.5588 34.1692 23.694 34.0116 23.786 33.854C23.9552 33.584 24.1292 33.2552 24.1264 32.9484C24.006 31.6576 20.432 33.2172 20.0728 33.6852C19.2488 34.6132 19.282 34.554 18.0168 34.7192C17.8452 34.7516 17.2376 34.8012 17.4544 34.5184C17.7572 34.2076 18.3944 33.9056 18.5228 33.5384C18.7284 33.1112 18.176 32.8212 17.8264 32.6948C15.408 31.7932 14.9608 32.8016 13.3252 32.8872C12.9804 32.846 11.7896 32.6656 11.7068 32.3424C11.7044 32.2944 11.7428 32.2528 11.8128 32.2192C11.9484 32.1532 12.1296 32.1344 12.2848 32.1016C14.102 31.7632 13.1208 30.8604 12.2496 30.1656C10.6884 28.8512 9.57557 29.842 8.07037 28.6408C7.84477 28.4432 7.49317 28.2108 7.44317 27.9128C7.51517 27.7096 8.05797 27.9244 8.23157 27.9464C9.61677 28.274 9.35677 27.3668 8.99997 26.4948C8.62437 25.5824 8.02357 24.94 7.16277 24.4508C6.83797 24.2676 6.46317 24.1344 6.18237 23.8916C5.88157 23.676 5.23157 22.4696 5.33037 22.1392C5.47877 21.838 6.39957 22.9 6.82837 22.7744C7.14517 22.7384 7.25117 22.3456 7.28837 22.0676C7.47357 20.7012 6.89557 19.2788 6.04037 18.2016C5.90677 18.0288 5.79277 17.8564 5.73717 17.644C5.64997 17.2728 5.45477 15.0816 6.10077 16.2664C6.84837 17.6876 7.21317 17.414 7.83557 16.2324C8.97557 14.1152 7.42477 13.0744 8.12637 11.4868C8.23237 11.1884 8.34237 10.73 8.59517 10.5364C8.89877 10.3848 8.82317 11.054 8.85157 11.2244C8.88477 12.0236 9.25957 12.5184 9.99717 11.9864C11.116 11.1916 11.8376 9.8984 12.0116 8.5444C12.0388 8.34799 12.0768 8.14599 12.1648 7.97119C12.2948 7.69679 12.5632 7.4768 12.7908 7.2428C13.0112 7.0384 13.2416 6.74199 13.5444 6.68799C13.8948 6.74079 13.158 7.8932 13.2836 8.2428C13.492 8.9728 14.5928 8.4632 15.0732 8.292C16.0904 7.8836 16.7468 7.258 17.338 6.33639C17.482 6.11559 17.6192 5.9028 17.8312 5.7496C17.9996 5.58079 19.5536 4.98839 19.63 5.20919C19.6524 5.60999 17.6332 6.7892 19.366 7.194C22.004 7.7192 22.5964 6.34519 24.0404 6.07759C24.2332 6.06239 26.0048 6.05559 25.5408 6.46039C25.2744 6.62959 24.8024 6.71719 24.5232 6.92599C23.0464 7.90319 26.738 9.27199 28.2908 8.90919C28.458 8.87959 28.6284 8.83919 28.784 8.82039C28.9788 8.79599 29.1584 8.81199 29.354 8.89C29.7836 9.076 30.52 9.44079 30.7236 9.67799C31.096 10.2616 28.4752 9.3788 28.974 10.598C29.5376 12.0364 30.9296 12.994 32.4096 13.2984C32.6564 13.3604 32.8812 13.4688 33.0676 13.6424C33.24 13.7564 34.53 15.3184 33.796 15.0628C33.378 14.8784 32.8032 14.4964 32.3452 14.64C32.096 14.7248 32.0432 15.0188 32.0356 15.2564C32.0028 16.6752 33.0368 18.2092 34.1988 19.0144C34.5932 19.29 34.6288 19.798 34.738 20.2332C34.8564 20.716 35.0612 21.5076 34.4624 20.8804C33.9376 20.2292 33.2604 19.6028 32.8708 20.7372C32.4272 21.9908 32.638 23.4244 33.2432 24.6112C33.4524 24.9656 33.5568 25.3564 33.4816 25.7692C33.4332 26.168 33.3672 26.6928 33.2268 26.9196C32.7152 27.67 32.8412 24.2532 31.3612 26.0292C30.5104 27.048 30.1556 28.3168 30.2548 29.6424C30.2688 29.8544 30.2764 30.074 30.2248 30.276C30.1732 30.4868 30.0568 30.6736 29.936 30.852C29.7996 31.0252 29.2648 31.9576 29.0504 31.6956L29.0484 31.6916L29.0472 31.692Z" fill="#25292E"></path><path d="M23.8532 24.0188C24.0424 22.4772 23.5532 23.0936 22.9904 22.6476C22.848 22.5348 22.8604 21.878 22.6908 21.658C22.462 21.3616 21.3628 21.7928 21.3012 21.3236C21.1888 20.636 21.6 19.286 20.5452 19.2704C18.726 19.4176 16.4252 18.3328 16.38 17.15C16.3616 16.6716 17.7088 17.7304 17.6788 17.5744C17.3808 16.0352 15.1072 15.1592 15.1132 14.8796C15.1172 14.6884 16.3428 14.988 16.93 15.2076C16.992 15.2308 17.0492 15.1628 17.0156 15.106C16.1596 13.6604 14.132 12.15 12.606 13.2156C9.09243 15.668 9.03803 20.7584 10.3668 24.006C11.992 27.9776 18.3436 33.5004 24.4872 27.5752C26.6748 25.4652 23.654 25.6416 23.8536 24.0188H23.8532Z" fill="#25292E"></path><path d="M29.9793 20.1244C30.1669 20.0548 30.1669 19.7896 29.9793 19.72L29.0645 19.3816C28.8249 19.2928 28.6365 19.1044 28.5477 18.8648L28.2093 17.95C28.1397 17.7624 27.8745 17.7624 27.8049 17.95L27.4665 18.8648C27.3781 19.104 27.1893 19.2928 26.9497 19.3816L26.0349 19.72C25.8473 19.7896 25.8473 20.0548 26.0349 20.1244L26.9497 20.4628C27.1893 20.5516 27.3777 20.74 27.4665 20.9796L27.8049 21.8944C27.8741 22.082 28.1397 22.082 28.2093 21.8944L28.5477 20.9796C28.6361 20.74 28.8249 20.5516 29.0645 20.4628L29.9793 20.1244Z" fill="#25292E"></path><path d="M25.4604 15.546L24.7864 15.2968C24.61 15.2316 24.4708 15.0924 24.4056 14.916L24.1564 14.242C24.1052 14.1036 23.9096 14.1036 23.8584 14.242L23.6092 14.916C23.544 15.0924 23.4048 15.2316 23.2284 15.2968L22.5544 15.546C22.416 15.5972 22.416 15.7928 22.5544 15.844L23.2284 16.0936C23.4048 16.1588 23.544 16.298 23.6092 16.4744L23.8584 17.1484C23.9096 17.2868 24.1052 17.2868 24.1564 17.1484L24.4056 16.4744C24.4708 16.298 24.61 16.1588 24.7864 16.0936L25.4604 15.844C25.5988 15.7928 25.5988 15.5972 25.4604 15.546Z" fill="#25292E"></path><path d="M19.9104 10.508L19.7448 10.9532C19.7016 11.0696 19.6096 11.1616 19.4928 11.2044L19.0472 11.3688C18.9556 11.4024 18.9556 11.5316 19.0472 11.5656L19.4924 11.7308C19.6088 11.774 19.7008 11.866 19.7436 11.9828L19.908 12.4284C19.9416 12.52 20.0708 12.52 20.1048 12.4284L20.27 11.9832C20.3132 11.8668 20.4052 11.7748 20.522 11.732L20.9676 11.5676C21.0592 11.534 21.0592 11.4048 20.9676 11.3708L20.5224 11.2056C20.406 11.1624 20.314 11.0704 20.2712 10.9536L20.1072 10.508C20.0736 10.4164 19.9444 10.4164 19.9104 10.508Z" fill="#25292E"></path></g></svg>