<svg width="24" height="25" viewBox="0 0 24 25" fill="none" xmlns="http://www.w3.org/2000/svg">
<g id="mark_email_unread">
<path id="Vector" d="M22 10.48V19.5C22 20.6 21.1 21.5 20 21.5H4C2.9 21.5 2 20.6 2 19.5L2.01 7.5C2.01 6.4 2.9 5.5 4 5.5H14.1C14.04 5.82 14 6.16 14 6.5C14 6.84 14.04 7.18 14.1 7.5H4L12 12.5L15.67 10.21C16.14 10.64 16.69 10.97 17.3 11.19L12 14.5L4 9.5V19.5H20V11.4C20.74 11.25 21.42 10.92 22 10.48ZM16 6.5C16 8.16 17.34 9.5 19 9.5C20.66 9.5 22 8.16 22 6.5C22 4.84 20.66 3.5 19 3.5C17.34 3.5 16 4.84 16 6.5Z" fill="white"/>
</g>
</svg>
