<svg width="158" height="141" viewBox="0 0 158 141" fill="none" xmlns="http://www.w3.org/2000/svg">
<path d="M117.76 88.54H111.44L109.2 86.38C117.04 77.26 121.76 65.42 121.76 52.54C121.76 23.82 98.4803 0.540039 69.7603 0.540039C42.4003 0.540039 20.0003 21.66 18.0003 48.54H34.1603C36.1603 30.54 51.2003 16.54 69.7603 16.54C89.6803 16.54 105.76 32.62 105.76 52.54C105.76 72.46 89.6803 88.54 69.7603 88.54C68.4003 88.54 67.1203 88.3 65.7603 88.14V104.3C67.1203 104.46 68.4003 104.54 69.7603 104.54C82.6403 104.54 94.4803 99.82 103.6 91.98L105.76 94.22V100.54L145.76 140.46L157.68 128.54L117.76 88.54Z" fill="#00ABB2"/>
<path d="M45.5203 63.1L25.7603 82.86L6.00031 63.1L0.320312 68.78L20.0803 88.54L0.320312 108.3L6.00031 113.98L25.7603 94.22L45.5203 113.98L51.2003 108.3L31.4403 88.54L51.2003 68.78L45.5203 63.1Z" fill="#00ABB2"/>
</svg>
