<svg width="21" height="20" viewBox="0 0 21 20" fill="none" xmlns="http://www.w3.org/2000/svg">
<mask id="mask0_287_14556" style="mask-type:alpha" maskUnits="userSpaceOnUse" x="0" y="0" width="21" height="20">
<rect x="0.1875" width="20.236" height="20" fill="#D9D9D9"/>
</mask>
<g mask="url(#mask0_287_14556)">
<path d="M9.67765 12.2938H10.9294C11.0247 12.2938 11.1086 12.2533 11.1809 12.1721C11.2532 12.091 11.2753 12.0018 11.2472 11.9044L10.8678 9.66242C11.0869 9.56493 11.2641 9.40985 11.3994 9.19717C11.5347 8.98449 11.6023 8.74942 11.6023 8.49196C11.6023 8.1416 11.4746 7.84177 11.2193 7.59248C10.9639 7.34317 10.6569 7.21852 10.2983 7.21852C9.93965 7.21852 9.63441 7.34421 9.38254 7.5956C9.13067 7.84698 9.00474 8.14917 9.00474 8.50217C9.00474 8.75742 9.07239 8.99047 9.20769 9.20133C9.34299 9.41219 9.52018 9.56589 9.73926 9.66242L9.35984 11.9044C9.33173 12.0018 9.35384 12.091 9.42617 12.1721C9.49849 12.2533 9.58231 12.2938 9.67765 12.2938ZM10.3035 17.4781C10.23 17.4781 10.1511 17.4746 10.0668 17.4677C9.98247 17.4607 9.90783 17.4434 9.84287 17.4156C8.12098 16.8184 6.74144 15.7623 5.70425 14.2473C4.66704 12.7324 4.14844 11.0743 4.14844 9.273V5.70731C4.14844 5.42283 4.22647 5.16678 4.38254 4.93919C4.53861 4.71159 4.74866 4.54776 5.01268 4.44771L9.81224 2.63521C9.97871 2.57111 10.1425 2.53906 10.3035 2.53906C10.4646 2.53906 10.6284 2.57111 10.7948 2.63521L15.5944 4.44771C15.8584 4.54776 16.0684 4.71159 16.2245 4.93919C16.3806 5.16678 16.4586 5.42283 16.4586 5.70731V9.273C16.4586 11.0743 15.94 12.7324 14.9028 14.2473C13.8656 15.7623 12.4861 16.8184 10.7642 17.4156C10.6992 17.4434 10.6246 17.4607 10.5403 17.4677C10.456 17.4746 10.377 17.4781 10.3035 17.4781ZM10.3035 16.4397C11.765 15.9917 12.9736 15.0959 13.9291 13.7522C14.8847 12.4084 15.3625 10.9154 15.3625 9.273V5.69929C15.3625 5.64587 15.3477 5.5978 15.3179 5.55506C15.2882 5.51231 15.2463 5.48026 15.1923 5.4589L10.3927 3.6464C10.3657 3.63571 10.336 3.63037 10.3035 3.63037C10.2711 3.63037 10.2414 3.63571 10.2143 3.6464L5.41481 5.4589C5.36075 5.48026 5.31886 5.51231 5.28914 5.55506C5.2594 5.5978 5.24453 5.64587 5.24453 5.69929V9.273C5.24453 10.9154 5.72233 12.4084 6.67791 13.7522C7.6335 15.0959 8.84204 15.9917 10.3035 16.4397Z" fill="black"/>
</g>
</svg>
