<svg width="26" height="26" viewBox="0 0 26 26" fill="none" xmlns="http://www.w3.org/2000/svg">
<path d="M2.67325 26C1.98275 26 1.40625 25.7688 0.94375 25.3063C0.48125 24.8438 0.25 24.2673 0.25 23.5768V4.42325C0.25 3.73275 0.48125 3.15625 0.94375 2.69375C1.40625 2.23125 1.98275 2 2.67325 2H16.6345V3.5H2.67325C2.44225 3.5 2.23063 3.59613 2.03838 3.78837C1.84613 3.98062 1.75 4.19225 1.75 4.42325V23.5768C1.75 23.8078 1.84613 24.0194 2.03838 24.2116C2.23063 24.4039 2.44225 24.5 2.67325 24.5H21.8268C22.0578 24.5 22.2694 24.4039 22.4616 24.2116C22.6539 24.0194 22.75 23.8078 22.75 23.5768V9.6155H24.25V23.5768C24.25 24.2673 24.0188 24.8438 23.5563 25.3063C23.0938 25.7688 22.5173 26 21.8268 26H2.67325ZM7 20.75V19.25H17.5V20.75H7ZM7 16.25V14.75H17.5V16.25H7ZM7 11.75V10.25H17.5V11.75H7ZM21.25 8V5H18.25V3.5H21.25V0.5H22.75V3.5H25.75V5H22.75V8H21.25Z" fill="#00ABB2"/>
</svg>
