<svg width="21" height="17" viewBox="0 0 21 17" fill="none" xmlns="http://www.w3.org/2000/svg">
<path d="M18.2385 12.7385L17.4962 11.9962C18.1911 11.3129 18.7372 10.5212 19.1345 9.621C19.532 8.72083 19.7307 7.76441 19.7307 6.75175C19.7307 5.73908 19.532 4.784 19.1345 3.8865C18.7372 2.98916 18.1911 2.19883 17.4962 1.5155L18.2385 0.761497C19.0188 1.52416 19.6389 2.4235 20.0987 3.4595C20.5586 4.4955 20.7885 5.5935 20.7885 6.7535C20.7885 7.91333 20.5583 9.00883 20.098 10.04C19.6378 11.071 19.018 11.9705 18.2385 12.7385ZM14.923 9.423L14.1692 8.66925C14.4307 8.41158 14.6372 8.11958 14.7885 7.79325C14.9398 7.46691 15.0155 7.11916 15.0155 6.75C15.0155 6.35516 14.9398 6.001 14.7885 5.6875C14.6372 5.374 14.4307 5.08841 14.1692 4.83075L14.923 4.077C15.2768 4.41933 15.5589 4.81516 15.7692 5.2645C15.9794 5.71383 16.0845 6.209 16.0845 6.75C16.0845 7.26533 15.9794 7.75408 15.7692 8.21625C15.5589 8.67841 15.2768 9.08066 14.923 9.423ZM7.21149 9.75C6.38649 9.75 5.68024 9.45625 5.09274 8.86875C4.50524 8.28125 4.21149 7.575 4.21149 6.75C4.21149 5.925 4.50524 5.21875 5.09274 4.63125C5.68024 4.04375 6.38649 3.75 7.21149 3.75C8.03649 3.75 8.74274 4.04375 9.33024 4.63125C9.91774 5.21875 10.2115 5.925 10.2115 6.75C10.2115 7.575 9.91774 8.28125 9.33024 8.86875C8.74274 9.45625 8.03649 9.75 7.21149 9.75ZM0.211487 16.9807V15.3345C0.211487 14.8743 0.327487 14.4763 0.559487 14.1405C0.791653 13.8045 1.11924 13.5372 1.54224 13.3385C2.35374 12.9437 3.2544 12.6187 4.24424 12.3635C5.2339 12.1083 6.22299 11.9807 7.21149 11.9807C8.19999 11.9807 9.18907 12.1083 10.1787 12.3635C11.1686 12.6187 12.0692 12.9437 12.8807 13.3385C13.3039 13.5372 13.6315 13.8045 13.8635 14.1405C14.0955 14.4763 14.2115 14.8743 14.2115 15.3345V16.9807H0.211487ZM1.21149 15.9807H13.2115V15.3345C13.2115 15.0615 13.1337 14.8372 12.978 14.6615C12.8222 14.4858 12.6307 14.3372 12.4037 14.2155C11.7782 13.8898 10.9947 13.6026 10.053 13.3537C9.11132 13.1051 8.16415 12.9807 7.21149 12.9807C6.25899 12.9807 5.3119 13.1051 4.37024 13.3537C3.42857 13.6026 2.6449 13.8898 2.01924 14.2155C1.79224 14.3372 1.6009 14.4858 1.44524 14.6615C1.2894 14.8372 1.21149 15.0615 1.21149 15.3345V15.9807ZM7.21149 8.75C7.76149 8.75 8.23232 8.55416 8.62399 8.1625C9.01565 7.77083 9.21149 7.3 9.21149 6.75C9.21149 6.2 9.01565 5.72916 8.62399 5.3375C8.23232 4.94583 7.76149 4.75 7.21149 4.75C6.66149 4.75 6.19065 4.94583 5.79899 5.3375C5.40732 5.72916 5.21149 6.2 5.21149 6.75C5.21149 7.3 5.40732 7.77083 5.79899 8.1625C6.19065 8.55416 6.66149 8.75 7.21149 8.75Z" fill="#1A1A1A"/>
</svg>
