<svg width="24" height="24" viewBox="0 0 24 24" fill="none" xmlns="http://www.w3.org/2000/svg">
<mask id="mask0_287_18778" style="mask-type:alpha" maskUnits="userSpaceOnUse" x="0" y="0" width="24" height="24">
<rect width="24" height="24" fill="#D9D9D9"/>
</mask>
<g mask="url(#mask0_287_18778)">
<path d="M12.0031 17.0031C12.2865 17.0031 12.524 16.9073 12.7156 16.7156C12.9073 16.524 13.0031 16.2865 13.0031 16.0031C13.0031 15.7198 12.9073 15.4823 12.7156 15.2906C12.524 15.099 12.2865 15.0031 12.0031 15.0031C11.7198 15.0031 11.4823 15.099 11.2906 15.2906C11.099 15.4823 11.0031 15.7198 11.0031 16.0031C11.0031 16.2865 11.099 16.524 11.2906 16.7156C11.4823 16.9073 11.7198 17.0031 12.0031 17.0031ZM11.0031 13.0031H13.0031V7.00313H11.0031V13.0031ZM12.0031 23.3031L8.65313 20.0031H4.00312V15.3531L0.703125 12.0031L4.00312 8.65313V4.00312H8.65313L12.0031 0.703125L15.3531 4.00312H20.0031V8.65313L23.3031 12.0031L20.0031 15.3531V20.0031H15.3531L12.0031 23.3031ZM12.0031 20.5031L14.5031 18.0031H18.0031V14.5031L20.5031 12.0031L18.0031 9.50313V6.00313H14.5031L12.0031 3.50312L9.50313 6.00313H6.00313V9.50313L3.50312 12.0031L6.00313 14.5031V18.0031H9.50313L12.0031 20.5031Z" fill="#393E46"/>
</g>
</svg>
