<svg width="26" height="26" viewBox="0 0 26 26" fill="none" xmlns="http://www.w3.org/2000/svg">
<path d="M9.43089 5.29575C6.71089 8.34909 4.84422 12.7358 4.67089 13.1491L1.65755 11.8558C0.790886 11.4824 0.577553 10.3491 1.24422 9.68242L5.25755 5.66909C5.88422 5.04242 6.79089 4.76242 7.67089 4.93575L9.43089 5.29575ZM11.4176 18.8424C11.8176 19.2424 12.4042 19.3491 12.9109 19.1091C14.4576 18.3891 17.7776 16.6958 19.9242 14.5491C26.0442 8.42909 26.0976 3.44242 25.7376 1.30909C25.6442 0.775755 25.2176 0.349088 24.6842 0.255755C22.5509 -0.104245 17.5642 -0.0509122 11.4442 6.06909C9.29755 8.21575 7.61755 11.5358 6.88422 13.0824C6.64422 13.5891 6.76422 14.1891 7.15089 14.5758L11.4176 18.8424ZM20.7109 16.5758C17.6576 19.2958 13.2709 21.1624 12.8576 21.3358L14.1509 24.3491C14.5242 25.2158 15.6576 25.4291 16.3242 24.7624L20.3376 20.7491C20.9642 20.1224 21.2442 19.2158 21.0709 18.3358L20.7109 16.5758ZM9.09755 20.0424C9.36422 21.4558 8.89755 22.7624 8.00422 23.6558C6.97755 24.6824 3.79089 25.4424 1.72422 25.8424C0.80422 26.0158 -0.00911397 25.2024 0.164219 24.2824C0.564219 22.2158 1.31089 19.0291 2.35089 18.0024C3.24422 17.1091 4.55089 16.6424 5.96422 16.9091C7.52422 17.2024 8.80422 18.4824 9.09755 20.0424ZM14.5109 8.82909C14.5109 7.36242 15.7109 6.16242 17.1776 6.16242C18.6442 6.16242 19.8442 7.36242 19.8442 8.82909C19.8442 10.2958 18.6442 11.4958 17.1776 11.4958C15.7109 11.4958 14.5109 10.2958 14.5109 8.82909Z" fill="#00ABB2"/>
</svg>
