<svg width="24" height="24" viewBox="0 0 24 24" fill="none" xmlns="http://www.w3.org/2000/svg">
<g id="schedule_FILL1_wght400_GRAD0_opsz24 1">
<path id="Vector" d="M15.305 16.495L16.495 15.305L13.35 12.16V8.25H11.65V12.84L15.305 16.495ZM12.5 21C11.3242 21 10.2192 20.7769 9.185 20.3306C8.15083 19.8844 7.25125 19.2788 6.48625 18.5138C5.72125 17.7487 5.11563 16.8492 4.66938 15.815C4.22312 14.7808 4 13.6758 4 12.5C4 11.3242 4.22312 10.2192 4.66938 9.185C5.11563 8.15083 5.72125 7.25125 6.48625 6.48625C7.25125 5.72125 8.15083 5.11563 9.185 4.66938C10.2192 4.22312 11.3242 4 12.5 4C13.6758 4 14.7808 4.22312 15.815 4.66938C16.8492 5.11563 17.7487 5.72125 18.5138 6.48625C19.2788 7.25125 19.8844 8.15083 20.3306 9.185C20.7769 10.2192 21 11.3242 21 12.5C21 13.6758 20.7769 14.7808 20.3306 15.815C19.8844 16.8492 19.2788 17.7487 18.5138 18.5138C17.7487 19.2788 16.8492 19.8844 15.815 20.3306C14.7808 20.7769 13.6758 21 12.5 21Z" fill="#00ADB5"/>
</g>
</svg>
