<svg width="32" height="32" viewBox="0 0 32 32" fill="none" xmlns="http://www.w3.org/2000/svg">
<circle cx="16" cy="16" r="15.5" fill="white" stroke="#EEEEEE"/>
<mask id="mask0_287_23067" style="mask-type:alpha" maskUnits="userSpaceOnUse" x="4" y="4" width="24" height="24">
<rect x="4" y="4" width="24" height="24" fill="#D9D9D9"/>
</mask>
<g mask="url(#mask0_287_23067)">
<path d="M20.1432 11.8038L10.8105 21.1269C10.672 21.2653 10.498 21.333 10.2884 21.3298C10.0788 21.3266 9.90474 21.2557 9.76629 21.1173C9.62783 20.9788 9.55859 20.8064 9.55859 20.6C9.55859 20.3936 9.62783 20.2211 9.76629 20.0827L19.0894 10.75H10.8932C10.6807 10.75 10.5026 10.678 10.3588 10.5342C10.2151 10.3904 10.1432 10.2122 10.1432 9.99965C10.1432 9.78705 10.2151 9.60896 10.3588 9.46538C10.5026 9.32179 10.6807 9.25 10.8932 9.25H20.7393C20.9954 9.25 21.2101 9.33662 21.3833 9.50985C21.5566 9.68308 21.6432 9.89774 21.6432 10.1538V20C21.6432 20.2125 21.5713 20.3906 21.4275 20.5343C21.2837 20.6781 21.1054 20.75 20.8928 20.75C20.6803 20.75 20.5022 20.6781 20.3586 20.5343C20.215 20.3906 20.1432 20.2125 20.1432 20V11.8038Z" fill="#393E46"/>
</g>
</svg>
