<svg width="24" height="25" viewBox="0 0 24 25" fill="none" xmlns="http://www.w3.org/2000/svg">
<path d="M2.79231 19.5934L4.13231 20.1534V11.1234L1.70231 16.9834C1.29231 18.0034 1.78231 19.1734 2.79231 19.5934ZM22.2923 15.8934L17.3323 3.92336C17.0223 3.17336 16.2923 2.71336 15.5223 2.69336C15.2623 2.69336 14.9923 2.73336 14.7323 2.84336L7.36231 5.89336C6.61231 6.20336 6.15231 6.92336 6.13231 7.69336C6.12231 7.96336 6.17231 8.23336 6.28231 8.49336L11.2423 20.4634C11.5523 21.2234 12.2923 21.6834 13.0723 21.6934C13.3323 21.6934 13.5923 21.6434 13.8423 21.5434L21.2023 18.4934C22.2223 18.0734 22.7123 16.9034 22.2923 15.8934ZM13.0923 19.6934L8.13231 7.73336L15.4823 4.69336H15.4923L20.4423 16.6434L13.0923 19.6934Z" fill="#262626"/>
<path d="M11.2623 9.94336C11.8146 9.94336 12.2623 9.49564 12.2623 8.94336C12.2623 8.39107 11.8146 7.94336 11.2623 7.94336C10.71 7.94336 10.2623 8.39107 10.2623 8.94336C10.2623 9.49564 10.71 9.94336 11.2623 9.94336Z" fill="#262626"/>
<path d="M6.14231 19.6934C6.14231 20.7934 7.04231 21.6934 8.14231 21.6934H9.59231L6.14231 13.3534V19.6934Z" fill="#262626"/>
</svg>
