<svg width="24" height="24" viewBox="0 0 24 24" fill="none" xmlns="http://www.w3.org/2000/svg">
<mask id="mask0_57452_60863" style="mask-type:alpha" maskUnits="userSpaceOnUse" x="0" y="0" width="24" height="24">
<rect width="24" height="24" fill="#D9D9D9"/>
</mask>
<g mask="url(#mask0_57452_60863)">
<path d="M1.79834 19.3076V17.0844C1.79834 16.5691 1.93134 16.1091 2.19734 15.7046C2.46334 15.3001 2.81859 14.9855 3.26309 14.7606C4.21342 14.2958 5.16901 13.9374 6.12984 13.6854C7.09084 13.4336 8.14692 13.3076 9.29809 13.3076C10.4494 13.3076 11.5055 13.4336 12.4663 13.6854C13.4273 13.9374 14.383 14.2958 15.3333 14.7606C15.7778 14.9855 16.1331 15.3001 16.3991 15.7046C16.6651 16.1091 16.7981 16.5691 16.7981 17.0844V19.3076H1.79834ZM18.7981 19.3076V16.9614C18.7981 16.3051 18.6374 15.6795 18.3161 15.0846C17.9946 14.49 17.5386 13.9797 16.9481 13.5539C17.6186 13.6539 18.2552 13.8086 18.8578 14.0181C19.4603 14.2278 20.0353 14.4756 20.5828 14.7614C21.0995 15.0371 21.4985 15.362 21.7798 15.7361C22.0612 16.1101 22.2018 16.5186 22.2018 16.9614V19.3076H18.7981ZM9.29809 11.6921C8.33559 11.6921 7.51167 11.3495 6.82634 10.6641C6.14101 9.97864 5.79834 9.15464 5.79834 8.19214C5.79834 7.22964 6.14101 6.40572 6.82634 5.72039C7.51167 5.03489 8.33559 4.69214 9.29809 4.69214C10.2606 4.69214 11.0846 5.03489 11.7701 5.72039C12.4554 6.40572 12.7981 7.22964 12.7981 8.19214C12.7981 9.15464 12.4554 9.97864 11.7701 10.6641C11.0846 11.3495 10.2606 11.6921 9.29809 11.6921ZM17.9326 8.19214C17.9326 9.15464 17.5899 9.97864 16.9046 10.6641C16.2193 11.3495 15.3953 11.6921 14.4328 11.6921C14.32 11.6921 14.1764 11.6793 14.0021 11.6536C13.8276 11.628 13.684 11.5998 13.5713 11.5691C13.9657 11.095 14.2688 10.569 14.4806 9.99114C14.6923 9.41331 14.7981 8.81331 14.7981 8.19114C14.7981 7.56881 14.6901 6.97105 14.4741 6.39789C14.2581 5.82489 13.9572 5.29739 13.5713 4.81539C13.7148 4.76406 13.8584 4.73072 14.0021 4.71539C14.1456 4.69989 14.2892 4.69214 14.4328 4.69214C15.3953 4.69214 16.2193 5.03489 16.9046 5.72039C17.5899 6.40572 17.9326 7.22964 17.9326 8.19214ZM3.29809 17.8076H15.2981V17.0844C15.2981 16.8756 15.2458 16.6897 15.1413 16.5269C15.037 16.3641 14.8713 16.2217 14.6443 16.0999C13.8213 15.6756 12.9739 15.3541 12.1021 15.1354C11.2303 14.9169 10.2956 14.8076 9.29809 14.8076C8.30076 14.8076 7.36617 14.9169 6.49434 15.1354C5.62251 15.3541 4.77509 15.6756 3.95209 16.0999C3.72509 16.2217 3.55934 16.3641 3.45484 16.5269C3.35034 16.6897 3.29809 16.8756 3.29809 17.0844V17.8076ZM9.29809 10.1921C9.84809 10.1921 10.3189 9.99631 10.7106 9.60464C11.1023 9.21297 11.2981 8.74214 11.2981 8.19214C11.2981 7.64214 11.1023 7.17131 10.7106 6.77964C10.3189 6.38797 9.84809 6.19214 9.29809 6.19214C8.74809 6.19214 8.27726 6.38797 7.88559 6.77964C7.49392 7.17131 7.29809 7.64214 7.29809 8.19214C7.29809 8.74214 7.49392 9.21297 7.88559 9.60464C8.27726 9.99631 8.74809 10.1921 9.29809 10.1921Z" fill="#1A1A1A"/>
</g>
</svg>
