<svg width="21" height="20" viewBox="0 0 21 20" fill="none" xmlns="http://www.w3.org/2000/svg">
<path d="M2.58337 16.3C1.95004 15.5667 1.44171 14.75 1.05837 13.85C0.675041 12.95 0.433374 12 0.333374 11H2.38337C2.48337 11.7334 2.66671 12.4292 2.93337 13.0875C3.20004 13.7459 3.55004 14.35 3.98337 14.9L2.58337 16.3ZM0.333374 9.00005C0.466707 8.00005 0.716707 7.05005 1.08337 6.15005C1.45004 5.25005 1.95004 4.43338 2.58337 3.70005L3.98337 5.10005C3.55004 5.65005 3.20004 6.25422 2.93337 6.91255C2.66671 7.57088 2.48337 8.26672 2.38337 9.00005H0.333374ZM9.28337 19.95C8.28337 19.85 7.33754 19.6084 6.44587 19.225C5.55421 18.8417 4.73337 18.35 3.98337 17.75L5.38337 16.3C5.96671 16.7334 6.57921 17.0917 7.22087 17.375C7.86254 17.6584 8.55004 17.85 9.28337 17.95V19.95ZM5.43337 3.70005L3.98337 2.25005C4.73337 1.65005 5.55421 1.15838 6.44587 0.775049C7.33754 0.391716 8.30004 0.150049 9.33337 0.0500488V2.05005C8.58337 2.15005 7.88337 2.34172 7.23337 2.62505C6.58337 2.90838 5.98337 3.26672 5.43337 3.70005ZM7.83337 14.5V5.50005L14.8334 10L7.83337 14.5ZM11.3334 19.95V17.95C13.35 17.6667 15.0209 16.775 16.3459 15.275C17.6709 13.775 18.3334 12.0167 18.3334 10C18.3334 7.98338 17.6709 6.22505 16.3459 4.72505C15.0209 3.22505 13.35 2.33338 11.3334 2.05005V0.0500488C13.9 0.333382 16.0417 1.41672 17.7584 3.30005C19.475 5.18338 20.3334 7.41672 20.3334 10C20.3334 12.5834 19.475 14.8167 17.7584 16.7C16.0417 18.5834 13.9 19.6667 11.3334 19.95Z" fill="#333333"/>
</svg>
