<svg width="14" height="14" viewBox="0 0 14 14" fill="none" xmlns="http://www.w3.org/2000/svg">
<path d="M6.93585 11.6689C6.15162 11.6099 5.89519 10.5857 6.55912 10.1641C6.82793 9.99346 7.17141 9.99448 7.43921 10.1667L7.52711 10.2233C8.26215 10.6961 9.20184 10.0439 9.01592 9.18989L8.98274 9.03745C8.90678 8.68856 9.02262 8.32564 9.28665 8.08527L11.08 6.45263L5.02201 6.88348C4.16947 6.94412 3.75299 5.86481 4.42527 5.33704L4.91939 4.94915C5.48479 4.50528 6.27207 5.09928 6.00044 5.7648C5.90183 6.00641 5.67709 6.17316 5.41728 6.19751L2.92 6.43158L11.08 6.45263L9.74521 11.0821C9.61401 11.5371 9.18162 11.8377 8.70938 11.8022L6.93585 11.6689ZM4.08847 13.7119C3.33774 14.1887 2.38486 13.5217 2.57573 12.6531L3.23606 9.64822C3.31275 9.29922 3.19739 8.93582 2.93345 8.69494L0.674559 6.63347C0.0325626 6.04758 0.39211 4.97806 1.25766 4.89897L4.1509 4.6346C4.52477 4.60044 4.84801 4.35975 4.9879 4.01135L6.07201 1.31126C6.40788 0.474725 7.59212 0.474724 7.92799 1.31126L9.0121 4.01135C9.15199 4.35975 9.47523 4.60044 9.8491 4.6346L12.7423 4.89897C13.6079 4.97806 13.9674 6.04758 13.3254 6.63347L11.0665 8.69494C10.8026 8.93582 10.6872 9.29922 10.7639 9.64822L11.4243 12.6531C11.6151 13.5217 10.6623 14.1887 9.91153 13.7119L7.53605 12.2035C7.20888 11.9958 6.79112 11.9958 6.46395 12.2035L4.08847 13.7119Z" fill="#F0831F"/>
</svg>
