<svg xmlns="http://www.w3.org/2000/svg" width="44" height="44" viewBox="0 0 44 44" fill="none">
  <path d="M40.1473 16.2983L38.2223 8.28667C37.819 6.63667 36.389 5.5 34.7207 5.5H9.25566C7.60566 5.5 6.15733 6.655 5.77233 8.28667L3.84733 16.2983C3.40733 18.1683 3.81066 20.075 4.98399 21.5783C5.13066 21.78 5.33233 21.9267 5.49733 22.11V34.8333C5.49733 36.85 7.14733 38.5 9.16399 38.5H34.8307C36.8473 38.5 38.4973 36.85 38.4973 34.8333V22.11C38.6623 21.945 38.864 21.78 39.0107 21.5967C40.184 20.0933 40.6057 18.1683 40.1473 16.2983ZM34.6657 9.14833L36.5907 17.16C36.774 17.93 36.609 18.7 36.1323 19.305C35.8757 19.635 35.3257 20.1667 34.409 20.1667C33.2907 20.1667 32.319 19.2683 32.1907 18.0767L31.1273 9.16667L34.6657 9.14833ZM23.8307 9.16667H27.424L28.414 17.4533C28.5057 18.1683 28.2857 18.8833 27.809 19.415C27.4057 19.8917 26.819 20.1667 26.0673 20.1667C24.839 20.1667 23.8307 19.085 23.8307 17.765V9.16667ZM15.5623 17.4533L16.5707 9.16667H20.164V17.765C20.164 19.085 19.1557 20.1667 17.799 20.1667C17.1757 20.1667 16.6073 19.8917 16.1673 19.415C15.709 18.8833 15.489 18.1683 15.5623 17.4533ZM7.40399 17.16L9.25566 9.16667H12.8673L11.804 18.0767C11.6573 19.2683 10.704 20.1667 9.58566 20.1667C8.68733 20.1667 8.11899 19.635 7.88066 19.305C7.38566 18.7183 7.22066 17.93 7.40399 17.16ZM9.16399 34.8333V23.7783C9.31066 23.7967 9.43899 23.8333 9.58566 23.8333C11.1807 23.8333 12.629 23.1733 13.6923 22.0917C14.7923 23.1917 16.259 23.8333 17.9273 23.8333C19.5223 23.8333 20.9523 23.1733 22.0157 22.1283C23.0973 23.1733 24.564 23.8333 26.214 23.8333C27.754 23.8333 29.2207 23.1917 30.3207 22.0917C31.384 23.1733 32.8323 23.8333 34.4273 23.8333C34.574 23.8333 34.7023 23.7967 34.849 23.7783V34.8333H9.16399Z" fill="#00ABB2"/>
</svg>