<svg width="96" height="96" viewBox="0 0 96 96" fill="none" xmlns="http://www.w3.org/2000/svg">
<g filter="url(#filter0_i_57635_64908)">
<path d="M60 12H20C15.6 12 12.04 15.6 12.04 20L12 76C12 80.4 15.56 84 19.96 84H76C80.4 84 84 80.4 84 76V36L60 12ZM20 76V20H56V40H76V76H20ZM36 32C36 34.2 34.2 36 32 36C29.8 36 28 34.2 28 32C28 29.8 29.8 28 32 28C34.2 28 36 29.8 36 32ZM36 48C36 50.2 34.2 52 32 52C29.8 52 28 50.2 28 48C28 45.8 29.8 44 32 44C34.2 44 36 45.8 36 48ZM36 64C36 66.2 34.2 68 32 68C29.8 68 28 66.2 28 64C28 61.8 29.8 60 32 60C34.2 60 36 61.8 36 64Z" fill="white"/>
</g>
<defs>
<filter id="filter0_i_57635_64908" x="12" y="12" width="72" height="73" filterUnits="userSpaceOnUse" color-interpolation-filters="sRGB">
<feFlood flood-opacity="0" result="BackgroundImageFix"/>
<feBlend mode="normal" in="SourceGraphic" in2="BackgroundImageFix" result="shape"/>
<feColorMatrix in="SourceAlpha" type="matrix" values="0 0 0 0 0 0 0 0 0 0 0 0 0 0 0 0 0 0 127 0" result="hardAlpha"/>
<feOffset dy="1"/>
<feGaussianBlur stdDeviation="1.25"/>
<feComposite in2="hardAlpha" operator="arithmetic" k2="-1" k3="1"/>
<feColorMatrix type="matrix" values="0 0 0 0 0 0 0 0 0 0 0 0 0 0 0 0 0 0 0.2 0"/>
<feBlend mode="normal" in2="shape" result="effect1_innerShadow_57635_64908"/>
</filter>
</defs>
</svg>
