<svg width="68" height="68" viewBox="0 0 68 68" fill="none" xmlns="http://www.w3.org/2000/svg">
<rect x="9" y="9" width="50" height="50" rx="25" fill="#00ABB2"/>
<rect x="4.5" y="4.5" width="59" height="59" rx="29.5" stroke="#00ABB2" stroke-opacity="0.05" stroke-width="9"/>
<path d="M44.4692 25.2839C45.5706 26.4052 45.5706 28.2228 44.4692 29.3441L34.4987 39.4973L33.354 40.6627C31.7921 42.253 29.2297 42.2532 27.6675 40.6632L26.522 39.4973L23.5312 36.4507C22.9815 35.8908 22.7051 35.1557 22.7051 34.4207C22.7051 33.6856 22.9815 32.9505 23.5312 32.3905C24.6326 31.2692 26.4178 31.2692 27.5189 32.3905L30.511 35.4355L40.4817 25.2839C41.033 24.724 41.7536 24.4426 42.4755 24.4426C43.1975 24.4426 43.918 24.724 44.4692 25.2839Z" fill="white"/>
</svg>
