<svg width="21" height="22" viewBox="0 0 21 22" fill="none" xmlns="http://www.w3.org/2000/svg">
<path d="M17.9453 4.5L17.3256 14.5251C17.1672 17.0864 17.0881 18.3671 16.4461 19.2879C16.1286 19.7431 15.72 20.1273 15.246 20.416C14.2874 21 13.0043 21 10.4381 21C7.86843 21 6.58362 21 5.62437 20.4149C5.15011 20.1257 4.74131 19.7408 4.424 19.2848C3.78219 18.3626 3.70477 17.0801 3.54992 14.5152L2.94531 4.5" stroke="#333333" stroke-width="1.8" stroke-linecap="round"/>
<path d="M19.4453 4.5H1.44531" stroke="#333333" stroke-width="1.8" stroke-linecap="round"/>
<path d="M14.5028 4.5L13.8201 3.09173C13.3667 2.15626 13.1399 1.68852 12.7488 1.39681C12.662 1.3321 12.5702 1.27454 12.4741 1.2247C12.041 1 11.5212 1 10.4816 1C9.41591 1 8.88306 1 8.44276 1.23412C8.34518 1.28601 8.25206 1.3459 8.16437 1.41317C7.76872 1.7167 7.5477 2.20155 7.10568 3.17126L6.5 4.5" stroke="#333333" stroke-width="1.8" stroke-linecap="round"/>
<path d="M7.94531 15.5L7.94531 9.5" stroke="#333333" stroke-width="1.8" stroke-linecap="round"/>
<path d="M12.9453 15.5L12.9453 9.5" stroke="#333333" stroke-width="1.8" stroke-linecap="round"/>
</svg>
