<svg width="44" height="44" viewBox="0 0 44 44" fill="none" xmlns="http://www.w3.org/2000/svg">
<rect x="0.5" y="0.499756" width="43" height="43" rx="21.5" fill="#F3F3F3"/>
<rect x="0.5" y="0.499756" width="43" height="43" rx="21.5" stroke="#F3F3F3"/>
<path d="M18.6543 29.8748C25.447 29.8748 29.1629 24.2464 29.1629 19.3741C29.1629 19.2166 29.1629 19.0568 29.1561 18.8993C29.8796 18.3756 30.5039 17.7272 31 16.9846C30.3242 17.2825 29.6081 17.4789 28.8749 17.5673C29.6472 17.1056 30.2257 16.3793 30.5028 15.5232C29.7771 15.9531 28.9829 16.2548 28.1549 16.4153C27.5982 15.8225 26.8616 15.4297 26.0591 15.2979C25.2566 15.1661 24.4331 15.3026 23.716 15.6862C22.999 16.0699 22.4284 16.6793 22.0928 17.42C21.7571 18.1607 21.6751 18.9915 21.8594 19.7836C20.391 19.7099 18.9544 19.3285 17.6429 18.6639C16.3314 17.9993 15.1743 17.0665 14.2465 15.9259C13.7755 16.7394 13.6318 17.7016 13.8445 18.6172C14.0572 19.5328 14.6104 20.3331 15.3917 20.8557C14.8062 20.8358 14.2336 20.6786 13.72 20.3967V20.4473C13.721 21.2995 14.0162 22.1252 14.5557 22.7848C15.0952 23.4444 15.846 23.8975 16.681 24.0676C16.364 24.1549 16.0366 24.1984 15.7079 24.1969C15.4761 24.1976 15.2448 24.1762 15.0171 24.1328C15.2531 24.8664 15.7127 25.5077 16.3314 25.9671C16.9501 26.4264 17.697 26.6808 18.4675 26.6944C17.1586 27.7225 15.5418 28.28 13.8775 28.2773C13.5842 28.2785 13.2912 28.2616 13 28.2267C14.6892 29.3036 16.651 29.8754 18.6543 29.8748Z" fill="#393E46"/>
</svg>
