<svg width="14" height="14" viewBox="0 0 14 14" fill="none" xmlns="http://www.w3.org/2000/svg">
<path d="M1.59754 13.5809C1.22911 13.5809 0.913715 13.4497 0.651354 13.1873C0.388993 12.925 0.257812 12.6096 0.257812 12.2411V1.75402C0.257812 1.38559 0.388993 1.07019 0.651354 0.807833C0.913715 0.545458 1.22911 0.41427 1.59754 0.41427H7.30612C7.45099 0.41427 7.57636 0.465791 7.68225 0.568832C7.78815 0.67186 7.8411 0.799528 7.8411 0.951833C7.8411 1.10414 7.78919 1.23317 7.68537 1.33894C7.58157 1.4447 7.45293 1.49758 7.29946 1.49758H1.59754C1.52275 1.49758 1.46131 1.52162 1.41323 1.56971C1.36515 1.61779 1.3411 1.67923 1.3411 1.75402V12.2411C1.3411 12.3159 1.36515 12.3774 1.41323 12.4255C1.46131 12.4735 1.52275 12.4976 1.59754 12.4976H12.0847C12.1595 12.4976 12.2209 12.4735 12.269 12.4255C12.3171 12.3774 12.3411 12.3159 12.3411 12.2411V6.53256C12.3411 6.38771 12.3926 6.26234 12.4956 6.15644C12.5987 6.05053 12.7263 5.99758 12.8786 5.99758C13.031 5.99758 13.16 6.04949 13.2657 6.15331C13.3715 6.25713 13.4244 6.38577 13.4244 6.53923V12.2411C13.4244 12.6096 13.2932 12.925 13.0309 13.1873C12.7685 13.4497 12.4531 13.5809 12.0847 13.5809H1.59754ZM11.1665 2.67704H10.2057C10.0516 2.67704 9.92234 2.62511 9.81806 2.52125C9.71378 2.41737 9.66165 2.28867 9.66165 2.13512C9.66165 1.98157 9.71378 1.85295 9.81806 1.74927C9.92234 1.64559 10.0516 1.59375 10.2057 1.59375H11.1665V0.635395C11.1665 0.481923 11.2187 0.353284 11.323 0.249479C11.4273 0.145659 11.5557 0.09375 11.708 0.09375C11.8603 0.09375 11.9878 0.145659 12.0907 0.249479C12.1935 0.353284 12.2449 0.481923 12.2449 0.635395V1.59375H13.1989C13.3511 1.59375 13.4802 1.64526 13.5861 1.74829C13.692 1.85132 13.7449 1.97899 13.7449 2.13129C13.7449 2.2836 13.693 2.41183 13.5892 2.51598C13.4854 2.62012 13.3568 2.67219 13.2033 2.67219H12.2449V3.63296C12.2449 3.78712 12.193 3.91635 12.0891 4.02062C11.9853 4.1249 11.8566 4.17704 11.703 4.17704C11.5536 4.17704 11.4269 4.12513 11.3227 4.02131C11.2186 3.91751 11.1665 3.78887 11.1665 3.6354V2.67704ZM6.07508 10.0136L5.04304 8.72196C4.97547 8.62687 4.89027 8.57933 4.78744 8.57933C4.6846 8.57933 4.5994 8.62955 4.53183 8.72998L3.38821 10.2497C3.29914 10.3637 3.28639 10.4821 3.34996 10.6049C3.41353 10.7278 3.50888 10.7892 3.63602 10.7892H10.1144C10.2457 10.7892 10.3415 10.7278 10.4016 10.6049C10.4617 10.4821 10.4511 10.3635 10.3699 10.2492L8.42442 7.64985C8.35685 7.54942 8.27031 7.49921 8.16481 7.49921C8.05931 7.49921 7.97258 7.55011 7.90462 7.65192L6.07508 10.0136Z" fill="#393E46"/>
</svg>
