<svg width="24" height="24" viewBox="0 0 24 24" fill="none" xmlns="http://www.w3.org/2000/svg">
<mask id="mask0_5491_20965" style="mask-type:alpha" maskUnits="userSpaceOnUse" x="0" y="0" width="24" height="24">
<rect width="24" height="24" fill="#D9D9D9"/>
</mask>
<g mask="url(#mask0_5491_20965)">
<path d="M7.765 21.566L7.76505 21.566L6.54963 19.5223L4.26033 19.0307C3.84288 18.9475 3.49943 18.7165 3.25873 18.371C3.25872 18.371 3.25872 18.371 3.25871 18.371L3.87412 17.9423C3.74015 17.75 3.68663 17.5416 3.71354 17.3173L7.765 21.566ZM7.765 21.566L7.76951 21.5734M7.765 21.566L7.76951 21.5734M7.76951 21.5734C7.97564 21.9111 8.27548 22.1635 8.65695 22.2953L8.65699 22.2954C9.05304 22.4322 9.45688 22.4051 9.83031 22.2431L12 21.3258L14.1697 22.243C14.5432 22.4051 14.9471 22.4323 15.3431 22.2953C15.7246 22.1635 16.0245 21.9111 16.2306 21.5734L16.2306 21.5734L16.235 21.566L17.4505 19.5223L19.7397 19.0307C20.1572 18.9475 20.5007 18.7165 20.7414 18.371C20.9743 18.0367 21.0791 17.6489 21.0324 17.2384L20.808 14.8774L22.3669 13.0943C22.6481 12.7892 22.7904 12.4109 22.7904 12C22.7904 11.5891 22.6481 11.2108 22.3669 10.9057L20.808 9.12258L21.0324 6.76164M7.76951 21.5734L21.0324 6.76164M7.76947 2.42656L7.76951 2.42659C7.97563 2.08891 8.27548 1.83653 8.65695 1.70466L8.65699 1.70465C9.05305 1.56775 9.45692 1.59495 9.83035 1.75694L12 2.67423L14.1698 1.75693C14.5432 1.59495 14.947 1.56775 15.3431 1.70465L15.3431 1.70466C15.7246 1.83653 16.0244 2.08891 16.2306 2.42659L16.2351 2.43397L16.235 2.43399L17.4505 4.47775L19.7397 4.96926C20.1572 5.05249 20.5007 5.28349 20.7414 5.62904M7.76947 2.42656L20.7414 5.62904M7.76947 2.42656L7.76505 2.43399M7.76947 2.42656L7.76505 2.43399M20.7414 5.62904C20.9743 5.96333 21.0791 6.35114 21.0324 6.76164M20.7414 5.62904L21.0324 6.76164M7.76505 2.43399L6.54963 4.47775L4.26034 4.96926M7.76505 2.43399L4.26034 4.96926M4.26034 4.96926C3.84289 5.05249 3.49943 5.28348 3.25873 5.62901L4.26034 4.96926ZM10.4222 13.5983L10.9177 14.089C10.8994 14.084 10.8785 14.0716 10.8477 14.0408L8.80694 12C8.80725 11.9997 8.80755 11.9995 8.80785 11.9992L10.4222 13.5983ZM11.0524 14.0408C11.0253 14.0678 11.006 14.0807 10.9893 14.0868L11.4804 13.5957L15.1842 9.89186C15.1851 9.89264 15.1861 9.89347 15.1871 9.89435C15.1892 9.89687 15.1909 9.89907 15.1923 9.90093L11.0524 14.0408ZM3.19212 14.8774L2.96766 17.2384L3.25871 5.62904C3.02584 5.96332 2.92094 6.35111 2.96766 6.7616L3.19212 9.12258L1.63318 10.9057C1.35204 11.2108 1.20972 11.5891 1.20972 12C1.20972 12.4109 1.35204 12.7892 1.63318 13.0943L3.19212 14.8774Z" fill="#00ADB5" stroke="white" stroke-width="1.5"/>
</g>
</svg>
